<svg xmlns="http://www.w3.org/2000/svg" viewBox="0 0 387.83 131.27">
    <defs>
        <style>
        .cls-11{font-size:45.94px;font-family:CooperBlack, Cooper Black;letter-spacing:0.2em;}
        .cls-11,.cls-14{}.cls-2{letter-spacing:0.19em;}
        .cls-13{letter-spacing:0.2em;}
        </style>
    </defs>
    <text class="cls-11" transform="translate(0.1 122.41)">Ha<tspan class="cls-12" x="81.25" y="0">n</tspan>
        <tspan class="cls-13" x="120.88" y="0">pin gogo</tspan>
    </text>
    <path class="cls-14" d="M15,83.88l.29-8.22-15,.2L0,63.09q6.54,0,15-.2V58.24H3.37l.09-7.72q0-12.57-.19-25.73l12-.5v-4q-5.45.21-14.84.3L.2,7.86q6.44,0,14.75-.2L14.75,3,28.41,1.92l.39,5.15Q35,7.07,42.86,7h0A12.57,12.57,0,0,1,30.53,20L29,20V23.8l5.25-.1q8.7.69,8.71,10.39,0,10.5-1.09,23.56-7.62.3-13.46.39l.29,4.36q6.35,0,15-.3h0A12.64,12.64,0,0,1,31.28,75.33l-2.38,0,.1,9Zm3.86-45.83L29.69,38l.1-1.29c0-1.71-.56-2.63-1.68-2.77a30.31,30.31,0,0,0-5.64-.29l-6.53.1L16,38.05ZM16,49.43q9,0,13.37-.29L29.6,45,16,45.28ZM69.78,85l-13.86-.1q.21-7,.3-26.23c-.92,0-4.72.2-11.38.59l-.4-12.87q7.43-.39,12-.69l.1-5.15a72.27,72.27,0,0,1-8.51.6l-.1-13.07q4.85-.19,8.61-.59V22.21q-3.27.3-10.1.5l-.2-13.07c4.29-.06,7.69-.23,10.2-.49,0-2.05,0-4.19-.1-6.44l13.16-.79V8.46Q80.78,8.06,87.8,8h0A13.19,13.19,0,0,1,75.06,21.64l-5.38.18v4.95L86.51,26l.59,13q-3.06.41-17.32.89v5.35q6.24-.3,8.41-.3a28.5,28.5,0,0,1,6.93.69c1.78.47,3.2,1.88,4.26,4.26a34,34,0,0,1,1.38,10.69q0,3.16-.09,6.73a36,36,0,0,1-.89,7,7.57,7.57,0,0,1-3,4.85,10.18,10.18,0,0,1-5.65,1.43h0a9.7,9.7,0,0,1-9.65-9l-.39-5.8a28.41,28.41,0,0,0,6.23,1.68q.6,0,.6-1.59V61.9c0-2.5-.66-3.79-2-3.86-1.59,0-3.63.07-6.14.2Z"/>
    <path class="cls-14" d="M101.36,85l.09-9q0-15.84-1.28-29.89l13.66-2.28.29,3.07a157.8,157.8,0,0,1,16.73-1Q142,46.47,142,61.21c0,3-.14,6.58-.4,10.75a13.13,13.13,0,0,1-13,12.28Q114.54,84.41,101.36,85ZM109.67,40V31.12q0-13.95-1.29-28.11L122.74.83,123.23,4q14-1.18,43.45-1.19,12,.79,12,15.44c0,2.16-.12,4.88-.36,8.18a13.15,13.15,0,0,1-12.76,12.21Zm4.65,31.67q5.45,0,13.17-.49a43.7,43.7,0,0,0,.59-7.62V61.41c0-2.24-1.06-3.37-3.17-3.37a67.55,67.55,0,0,0-10.69.8Q114.33,67.64,114.32,71.7Zm9.21-44.83q11.78,0,39.69-1.19a28,28,0,0,0,.59-5.35V19.05q0-3.47-2.67-4a44.11,44.11,0,0,0-7.52-.4q-9.6,0-30.29,1Q123.53,22.31,123.53,26.87Zm24.25,57.9v-9q0-15.93-1.29-30L160,43.59l.5,3q9.88-.89,17.32-.89,11.39.69,11.38,15.34,0,4.47-.43,10.73A13.09,13.09,0,0,1,175.86,84Q162.45,84.16,147.78,84.77Zm13.06-13.36q4.07,0,13.76-.5a42.67,42.67,0,0,0,.6-7.62V62.1q0-3.66-2.58-4.35h-1.78a56,56,0,0,0-10.29.79Q160.84,67.35,160.84,71.41Z"/>
    <path class="cls-14" d="M224.59,32.8q0,24-6.2,38.58a14.17,14.17,0,0,1-20.83,6.16h0a51.31,51.31,0,0,0,12.38-19l-10.79.1q.49-11.88.49-26.43,0-8.31-.2-30.68L210.33,1V3.8a118.7,118.7,0,0,1,20.49-1.58q6.44.6,6.83,10.69.39,10.59.4,20.79,0,13.45-.7,25.63l-11.48-.89q1.19-16.12,1.19-30.09,0-4.46-.2-9.7-.09-2.47-3.86-2.57-2.07.2-12.57,1.09.3,19.5.3,39.09,3.17-10.78,3.17-25.63l-.1-9.9h0a11.3,11.3,0,0,1,10.76,11ZM230.52,84q-4.25-10.89-9.7-16.93h0a13.12,13.12,0,0,1,18.63,4.36,65.67,65.67,0,0,1,3.05,6.23Zm7.82-54.54q6.93-10.89,10.2-29.2l3.22.6a8.77,8.77,0,0,1,7,10.58l0,.1q12.57-.78,16.83-.79a25.3,25.3,0,0,1,7.08.89,6.83,6.83,0,0,1,4.4,4q1.59,3.57,1.59,13.76c0,2.38-.07,6.05-.2,11s-.4,11.41-.79,19.3-.88,13.11-1.44,15.69A14.48,14.48,0,0,1,283,82a9,9,0,0,1-6.63,2.92,24.12,24.12,0,0,1-4.4-.35c-1.22-.23-3.29-.74-6.19-1.53l-.59-11.88-1.49,1.09a53.83,53.83,0,0,0-.59-5.54,117.34,117.34,0,0,1-12.47,2.57,9.27,9.27,0,0,1-5.2-1.34,7.47,7.47,0,0,1-2.92-3.61,12.48,12.48,0,0,1-.89-4.55A26.82,26.82,0,0,1,242.9,52q1-3.46,4.55-14.36A8.4,8.4,0,0,1,246,39.53Zm14.06,2.28,8.31,2.77q-6.43,17.71-6.43,19.69c0,.6.4.89,1.19.89a21.7,21.7,0,0,0,5.44-1l0-.13a15.05,15.05,0,0,1,6.61-15l.93-.61a197.48,197.48,0,0,1,6.24,26.33l-5.44,3.66a14.15,14.15,0,0,0,4,.34c1-.1,1.75-.87,2.18-2.32s.81-6.1,1.14-14Q277,42.8,277,34a31.26,31.26,0,0,0-.54-6.78,2.81,2.81,0,0,0-2.33-2.47,22.42,22.42,0,0,0-3.16-.25q-2.58,0-16.14,1.19Q254.08,27.66,252.4,31.72Z"/>
    <path class="cls-14" d="M323.57,32.8q0,24-6.2,38.58a14.17,14.17,0,0,1-20.83,6.16h0a51.31,51.31,0,0,0,12.38-19l-10.79.1q.5-11.88.49-26.43,0-8.31-.2-30.68L309.31,1V3.8A118.7,118.7,0,0,1,329.8,2.22q6.43.6,6.83,10.69Q337,23.5,337,33.7q0,13.45-.7,25.63l-11.48-.89Q326,42.32,326,28.35q0-4.46-.2-9.7-.09-2.47-3.86-2.57-2.07.2-12.57,1.09.3,19.5.3,39.09,3.17-10.78,3.17-25.63l-.1-9.9h0a11.3,11.3,0,0,1,10.76,11ZM329.5,84q-4.25-10.89-9.7-16.93h0a13.12,13.12,0,0,1,18.63,4.36,65.67,65.67,0,0,1,3.05,6.23Zm7.82-54.54q6.93-10.89,10.2-29.2l3.22.6a8.77,8.77,0,0,1,7,10.58l0,.1q12.57-.78,16.83-.79a25.3,25.3,0,0,1,7.08.89,6.83,6.83,0,0,1,4.4,4q1.59,3.57,1.59,13.76c0,2.38-.07,6.05-.2,11s-.4,11.41-.79,19.3-.88,13.11-1.44,15.69A14.48,14.48,0,0,1,382,82a9,9,0,0,1-6.63,2.92,24.12,24.12,0,0,1-4.4-.35c-1.22-.23-3.29-.74-6.19-1.53l-.59-11.88-1.49,1.09a53.83,53.83,0,0,0-.59-5.54,117.34,117.34,0,0,1-12.47,2.57,9.27,9.27,0,0,1-5.2-1.34,7.52,7.52,0,0,1-2.92-3.61,12.48,12.48,0,0,1-.89-4.55A26.82,26.82,0,0,1,341.88,52q1-3.46,4.55-14.36A8.4,8.4,0,0,1,345,39.53Zm14.06,2.28,8.31,2.77q-6.44,17.71-6.43,19.69c0,.6.4.89,1.19.89a21.7,21.7,0,0,0,5.44-1l0-.13a15.05,15.05,0,0,1,6.61-15l.93-.61a197.48,197.48,0,0,1,6.24,26.33l-5.44,3.66a14.15,14.15,0,0,0,4,.34c1-.1,1.75-.87,2.18-2.32s.81-6.1,1.14-14q.5-9.6.5-18.41a31.13,31.13,0,0,0-.55-6.78,2.81,2.81,0,0,0-2.32-2.47,22.66,22.66,0,0,0-3.17-.25q-2.58,0-16.14,1.19C353.33,27,352.5,29,351.38,31.72Z"/>
</svg>