<svg 
    xmlns="http://www.w3.org/2000/svg"
    xmlns:xlink="http://www.w3.org/1999/xlink" viewBox="0 0 275.52 275.52">
    <defs>
        <style>
        .cls-21{fill:url(#무제_그라디언트_31);}
        .cls-22{clip-path:url(#clip-path);}
        .cls-23{fill:url(#무제_그라디언트_16);}
        .cls-24{fill:#e94619;}
        .cls-25{fill:#fff;}</style>
        <linearGradient id="무제_그라디언트_31" x1="137.99" y1="189.28" x2="137.99" y2="307.92" gradientUnits="userSpaceOnUse">
            <stop offset="0" stop-color="#fff"/>
            <stop offset="0.3" stop-color="#f9f9f9"/>
            <stop offset="0.7" stop-color="#e8e8e9"/>
            <stop offset="1" stop-color="#d7d7d8"/>
        </linearGradient>
        <clipPath id="clip-path">
            <rect class="cls-21" x="0.47" y="0.39" width="275.05" height="275.05" rx="28.43"/>
        </clipPath>
        <linearGradient id="무제_그라디언트_16" x1="137.99" y1="332.6" x2="137.99" y2="-0.19" gradientUnits="userSpaceOnUse">
            <stop offset="0" stop-color="#e94619"/>
            <stop offset="0.32" stop-color="#ea4c18"/>
            <stop offset="0.75" stop-color="#ec5d16"/>
            <stop offset="1" stop-color="#ed6a15"/>
        </linearGradient>
    </defs>
    <rect class="cls-21" x="0.47" y="0.39" width="275.05" height="275.05" rx="28.43"/>
    <g class="cls-22">
        <ellipse class="cls-23" cx="137.99" cy="90.41" rx="187.57" ry="132"/>
    </g>
    <path class="cls-24" d="M42.48,235.06c2.82,0,4.23.58,4.23,1.75a1.3,1.3,0,0,1-.21.77,3,3,0,0,1-.83.67,1.42,1.42,0,0,0-.67.85,9.94,9.94,0,0,0-.14,2.15c0,.63.11,1,.35,1.16a1.28,1.28,0,0,0,.62.17c.27,0,.92,0,1.94,0a5.35,5.35,0,0,0,1.74-.16c.23-.09.34-.34.34-.74a12.85,12.85,0,0,0-.16-2.5,1.36,1.36,0,0,0-.64-1,3,3,0,0,1-.79-.58,1,1,0,0,1-.19-.63,1.45,1.45,0,0,1,.42-1,2.18,2.18,0,0,1,1.1-.62,15.28,15.28,0,0,1,3.55-.34,10.81,10.81,0,0,1,3.68.46c.79.3,1.19.77,1.19,1.41a1.31,1.31,0,0,1-.84,1.23,1.89,1.89,0,0,0-.7.46,2.2,2.2,0,0,0-.25.84c0,.23-.09,1.23-.14,3s-.08,3.2-.08,4.25a18.3,18.3,0,0,0,.2,3.5,1.28,1.28,0,0,0,.25.55,5.33,5.33,0,0,0,.85.54.93.93,0,0,1,.52.87,1.59,1.59,0,0,1-1.23,1.5,12.23,12.23,0,0,1-4,.47,9.82,9.82,0,0,1-3.57-.48,1.43,1.43,0,0,1-1-1.34,1.34,1.34,0,0,1,.8-1.21,1.71,1.71,0,0,0,.54-.43,3,3,0,0,0,.28-.81,13.79,13.79,0,0,0,.24-2.79c0-.57-.08-.93-.25-1.06a2.48,2.48,0,0,0-1.31-.21,10.19,10.19,0,0,0-3.1.28q-.27.1-.33.63a12.11,12.11,0,0,0-.09,1.61,4.25,4.25,0,0,0,.44,2.22,2.42,2.42,0,0,0,.7.56,1.14,1.14,0,0,1,.57,1.07c0,.64-.44,1.12-1.31,1.45a10.84,10.84,0,0,1-3.76.51,11.83,11.83,0,0,1-3.64-.47,2.16,2.16,0,0,1-1-.57,1.19,1.19,0,0,1-.34-.82,1.06,1.06,0,0,1,.21-.7,3.92,3.92,0,0,1,1-.62,1.14,1.14,0,0,0,.54-.49,3.36,3.36,0,0,0,.24-1,35.45,35.45,0,0,0,.2-4.16c0-.31,0-.69,0-1.12q-.06-3.27-.06-3.72a3.57,3.57,0,0,0-.19-1.54,2.56,2.56,0,0,0-1.11-.82.92.92,0,0,1-.6-.86c0-.91.89-1.55,2.66-1.9A15.88,15.88,0,0,1,42.48,235.06Z"/>
    <path class="cls-24" d="M69.43,240.35a6.62,6.62,0,0,1,4,1.2A3.46,3.46,0,0,1,74.65,243a5.94,5.94,0,0,1,.35,2.26l0,2a7.73,7.73,0,0,0,.3,2.73,1,1,0,0,0,.28.38,1.89,1.89,0,0,0,.57.14.51.51,0,0,1,.44.58,2.34,2.34,0,0,1-.52,1.35,4.3,4.3,0,0,1-1.35,1.18,4.14,4.14,0,0,1-2.13.6,2.8,2.8,0,0,1-2.26-1,.78.78,0,0,0-.53-.35,1.33,1.33,0,0,0-.72.34,5.08,5.08,0,0,1-3.08,1,5,5,0,0,1-2.88-.76A3.54,3.54,0,0,1,62,252.18a3.61,3.61,0,0,1-.42-1.69,3.37,3.37,0,0,1,1.14-2.5A7.46,7.46,0,0,1,68,246.27a1.9,1.9,0,0,0,1-.16c.13-.1.2-.34.2-.72a5.32,5.32,0,0,0-.3-2.09,1,1,0,0,0-1-.64,1.16,1.16,0,0,0-.72.24,4.51,4.51,0,0,0-.8.9,3.25,3.25,0,0,1-2.52,1.72,1.53,1.53,0,0,1-1.09-.39,1.35,1.35,0,0,1-.42-1,2.15,2.15,0,0,1,.52-1.31,4.74,4.74,0,0,1,1.42-1.14A10.92,10.92,0,0,1,69.43,240.35Zm-.91,7.86a1.33,1.33,0,0,0-1,.49,1.81,1.81,0,0,0-.13,2.22,1,1,0,0,0,.82.4c.73,0,1.09-.61,1.09-1.83a2.1,2.1,0,0,0-.16-1A.66.66,0,0,0,68.52,248.21Z"/>
    <path class="cls-24" d="M96.69,245.37l.19,4.78a1.73,1.73,0,0,0,.17.8,6.11,6.11,0,0,0,.83,1,.85.85,0,0,1,.2.61A1.29,1.29,0,0,1,97,253.8a13.72,13.72,0,0,1-3.83.36,7.41,7.41,0,0,1-2.64-.33,1.14,1.14,0,0,1-.8-1.1.73.73,0,0,1,.08-.4,5,5,0,0,1,.54-.63c.36-.38.54-1.65.54-3.8a6.68,6.68,0,0,0-.43-2.77,1.58,1.58,0,0,0-2.55-.14,4.57,4.57,0,0,0-.34,2.12v2.69a3.91,3.91,0,0,0,.1,1.1,6.73,6.73,0,0,0,.67,1.15,1,1,0,0,1,.15.56c0,.53-.37.93-1.11,1.18a11.73,11.73,0,0,1-3.48.38c-2.51,0-3.77-.52-3.77-1.56a.88.88,0,0,1,.12-.5,2.56,2.56,0,0,1,.54-.48,1.09,1.09,0,0,0,.45-.59,9.13,9.13,0,0,0,.18-1.63c.06-1,.09-2.12.09-3.25a3.3,3.3,0,0,0-.14-1.23,2.25,2.25,0,0,0-.82-.71,1,1,0,0,1-.58-.9,1.08,1.08,0,0,1,.47-.89,9.51,9.51,0,0,1,2-.87c.87-.31,1.7-.57,2.51-.78a8.15,8.15,0,0,1,1.65-.32.9.9,0,0,1,.69.3,1,1,0,0,1,.28.7s0,.14,0,.34a1.42,1.42,0,0,0,0,.19q0,.66.54.66c.22,0,.45-.18.7-.52a3.86,3.86,0,0,1,3.39-1.68,4.79,4.79,0,0,1,2.93.89,3.55,3.55,0,0,1,1.2,1.5A8.82,8.82,0,0,1,96.69,245.37Z"/>
    <path class="cls-24" d="M108.07,240.43a2.11,2.11,0,0,1,1,.15c.14.09.21.33.21.71s.11.5.32.5a3.41,3.41,0,0,0,.91-.51,5,5,0,0,1,1.49-.66,5.71,5.71,0,0,1,1.63-.27,4.51,4.51,0,0,1,3.08,1.2,6,6,0,0,1,1.61,2.29,8.12,8.12,0,0,1,.59,3,7.51,7.51,0,0,1-2.3,5.64,5.67,5.67,0,0,1-4,1.72,5.81,5.81,0,0,1-2.37-.54,1.15,1.15,0,0,0-.4-.11c-.27,0-.4.27-.4.81a1.71,1.71,0,0,0,.71,1.55,5.41,5.41,0,0,1,.8.6.89.89,0,0,1,.13.53,1.37,1.37,0,0,1-.91,1.25,5.94,5.94,0,0,1-2.57.44,10.79,10.79,0,0,1-5.16-1.18,1.71,1.71,0,0,1-1.12-1.48.91.91,0,0,1,.17-.61,1.81,1.81,0,0,1,.66-.44,1.52,1.52,0,0,0,.86-1.19c.1-.57.18-2.2.24-4.91a25.1,25.1,0,0,0-.25-3.75.29.29,0,0,0-.15-.17,5.18,5.18,0,0,0-.68-.15,1.21,1.21,0,0,1-.7-.4,1.15,1.15,0,0,1-.27-.77,1.36,1.36,0,0,1,.38-1,3.89,3.89,0,0,1,1.23-.8A14.33,14.33,0,0,1,108.07,240.43Zm1.35,5.13-.21,3.74c0,.15,0,.3,0,.44a.8.8,0,0,0,.36.68,1.7,1.7,0,0,0,1,.26c1.25,0,1.87-1,1.87-3.08a4,4,0,0,0-.78-2.81,1.6,1.6,0,0,0-1.17-.5C109.82,244.29,109.47,244.71,109.42,245.56Z"/>
    <path class="cls-24" d="M130.25,241.3v7.89a3.89,3.89,0,0,0,.17,1.37,1.8,1.8,0,0,0,.68.8,2.23,2.23,0,0,1,.56.51.91.91,0,0,1,.15.54c0,1.16-1.48,1.75-4.44,1.75a15.2,15.2,0,0,1-3.79-.38,1.51,1.51,0,0,1-.76-.48,1.13,1.13,0,0,1-.3-.77.92.92,0,0,1,.15-.57,3.89,3.89,0,0,1,.76-.65,1.77,1.77,0,0,0,.6-1,9.16,9.16,0,0,0,.18-2.11c0-.3,0-.85-.06-1.67s-.07-1.3-.09-1.44a1.16,1.16,0,0,0-.76-.85,1.17,1.17,0,0,1-.84-1.09c0-.56.36-1,1.09-1.27a24.9,24.9,0,0,1,3.26-1,12.91,12.91,0,0,1,2.69-.41Q130.25,240.46,130.25,241.3Zm-2.69-5.94a3.38,3.38,0,0,1,1.87.44,1.35,1.35,0,0,1,.69,1.19,1.85,1.85,0,0,1-1,1.65,7.85,7.85,0,0,1-4,1,2.88,2.88,0,0,1-1.58-.38,1.54,1.54,0,0,1-.79-1.36c0-.78.56-1.39,1.67-1.84A8.61,8.61,0,0,1,127.56,235.36Z"/>
    <path class="cls-24" d="M151.85,245.37l.19,4.78a2,2,0,0,0,.17.8,7.06,7.06,0,0,0,.84,1,.9.9,0,0,1,.2.61,1.3,1.3,0,0,1-1.07,1.25,13.77,13.77,0,0,1-3.83.36,7.47,7.47,0,0,1-2.65-.33,1.15,1.15,0,0,1-.8-1.1.72.72,0,0,1,.09-.4,5,5,0,0,1,.54-.63c.36-.38.54-1.65.54-3.8a6.68,6.68,0,0,0-.43-2.77,1.59,1.59,0,0,0-2.56-.14,4.74,4.74,0,0,0-.33,2.12v2.69a3.91,3.91,0,0,0,.1,1.1,6.08,6.08,0,0,0,.67,1.15,1,1,0,0,1,.15.56c0,.53-.37.93-1.12,1.18a11.7,11.7,0,0,1-3.47.38c-2.52,0-3.77-.52-3.77-1.56a1,1,0,0,1,.11-.5,2.69,2.69,0,0,1,.55-.48,1.09,1.09,0,0,0,.45-.59,11.7,11.7,0,0,0,.18-1.63c.06-1,.09-2.12.09-3.25a3.53,3.53,0,0,0-.14-1.23,2.35,2.35,0,0,0-.82-.71,1.05,1.05,0,0,1-.59-.9,1.07,1.07,0,0,1,.48-.89,9.61,9.61,0,0,1,1.95-.87q1.31-.47,2.52-.78a8,8,0,0,1,1.65-.32.92.92,0,0,1,.69.3,1,1,0,0,1,.27.7s0,.14,0,.34a1.42,1.42,0,0,0,0,.19q0,.66.54.66c.22,0,.45-.18.69-.52a3.88,3.88,0,0,1,3.4-1.68,4.81,4.81,0,0,1,2.93.89,3.45,3.45,0,0,1,1.19,1.5A8.17,8.17,0,0,1,151.85,245.37Z"/>
    <path class="cls-24" d="M181,239.63a.72.72,0,0,1,.59.39,1.61,1.61,0,0,1,.26.9,2.91,2.91,0,0,1-.34,1.26,3.47,3.47,0,0,1-.84,1.13c-.21.18-.31.33-.31.43s0,.14,0,.33a5.13,5.13,0,0,1,0,.52,3.73,3.73,0,0,1-1.09,2.71,6.56,6.56,0,0,1-2.52,1.52,10.11,10.11,0,0,1-3.38.55,6.54,6.54,0,0,1-.89-.06,4.26,4.26,0,0,0-.54,0,.64.64,0,0,0-.72.72.82.82,0,0,0,.47.73A2.64,2.64,0,0,0,173,251a12.52,12.52,0,0,0,1.6-.15,25.82,25.82,0,0,1,3.28-.31,4.9,4.9,0,0,1,2.49.53,3,3,0,0,1,1.12,1.14,3.2,3.2,0,0,1,.41,1.57,4.27,4.27,0,0,1-1,2.66,7,7,0,0,1-3.52,2.25,13.71,13.71,0,0,1-4.2.58,11,11,0,0,1-4.89-.93,3.83,3.83,0,0,1-1.39-1.14,2.47,2.47,0,0,1-.51-1.46,1.79,1.79,0,0,1,.29-1,1.68,1.68,0,0,1,.74-.64c.27-.11.41-.22.41-.35s-.12-.25-.34-.44a2.49,2.49,0,0,1-1.09-1.88,2.3,2.3,0,0,1,.52-1.35,3.55,3.55,0,0,1,1.3-1.07c.22-.11.33-.22.33-.32s-.14-.32-.41-.57a4,4,0,0,1-1.4-3,3.39,3.39,0,0,1,.5-1.74,4.48,4.48,0,0,1,1.37-1.41,8.71,8.71,0,0,1,4.85-1.42,11.7,11.7,0,0,1,2.36.27,10.7,10.7,0,0,0,1.7.24,4.74,4.74,0,0,0,2.94-1.16A1,1,0,0,1,181,239.63Zm-10.33,15.16c-.23,0-.34.14-.34.4a1.47,1.47,0,0,0,.87,1.29,4.49,4.49,0,0,0,2.25.5,5.07,5.07,0,0,0,2.08-.35,1.11,1.11,0,0,0,.76-1,.73.73,0,0,0-.29-.57,1,1,0,0,0-.7-.24c-.15,0-.36,0-.63.05a9.79,9.79,0,0,1-1.7.13,11.49,11.49,0,0,1-1.33-.07,5.65,5.65,0,0,1-.77-.11Zm3-12.35a1.33,1.33,0,0,0-1.1.52,2.15,2.15,0,0,0-.41,1.37,5.2,5.2,0,0,0,.45,2.35,1.33,1.33,0,0,0,1.18.88,1.35,1.35,0,0,0,1.14-.55,2.37,2.37,0,0,0,.42-1.47,4.82,4.82,0,0,0-.44-2.26A1.44,1.44,0,0,0,173.61,242.44Z"/>
    <path class="cls-24" d="M193.8,240.35a7.5,7.5,0,0,1,4.36,1.29,7,7,0,0,1,2.15,2.4,6.58,6.58,0,0,1,.85,3.23,6.12,6.12,0,0,1-2.7,5,9.5,9.5,0,0,1-5.91,2,7.46,7.46,0,0,1-5.25-1.84,6.08,6.08,0,0,1-2-4.67,6.56,6.56,0,0,1,2.39-5.24A9,9,0,0,1,193.8,240.35Zm-1.09,3.14a1.15,1.15,0,0,0-1,.44,1.78,1.78,0,0,0-.36,1.17,11.18,11.18,0,0,0,.3,2.22,17.36,17.36,0,0,0,.73,2.49,1.45,1.45,0,0,0,1.37,1.11c.81,0,1.21-.51,1.21-1.53a12.34,12.34,0,0,0-.31-2.59,10.31,10.31,0,0,0-.74-2.36A1.43,1.43,0,0,0,192.71,243.49Z"/>
    <path class="cls-24" d="M219.34,239.63a.72.72,0,0,1,.6.39,1.61,1.61,0,0,1,.26.9,2.94,2.94,0,0,1-.35,1.26,3.46,3.46,0,0,1-.83,1.13c-.21.18-.32.33-.32.43s0,.14,0,.33a3.28,3.28,0,0,1,0,.52,3.72,3.72,0,0,1-1.08,2.71,6.64,6.64,0,0,1-2.52,1.52,10.21,10.21,0,0,1-3.39.55,6.4,6.4,0,0,1-.88-.06,4.51,4.51,0,0,0-.54,0,.64.64,0,0,0-.72.72.8.8,0,0,0,.47.73,2.63,2.63,0,0,0,1.26.26,12.49,12.49,0,0,0,1.61-.15,25.82,25.82,0,0,1,3.28-.31,4.9,4.9,0,0,1,2.49.53,2.9,2.9,0,0,1,1.11,1.14,3.11,3.11,0,0,1,.42,1.57,4.28,4.28,0,0,1-1,2.66,6.9,6.9,0,0,1-3.51,2.25,13.78,13.78,0,0,1-4.21.58,11,11,0,0,1-4.89-.93,3.79,3.79,0,0,1-1.38-1.14,2.48,2.48,0,0,1-.52-1.46,1.72,1.72,0,0,1,.3-1,1.63,1.63,0,0,1,.74-.64c.27-.11.4-.22.4-.35s-.11-.25-.34-.44a2.51,2.51,0,0,1-1.08-1.88,2.23,2.23,0,0,1,.52-1.35,3.55,3.55,0,0,1,1.3-1.07c.21-.11.32-.22.32-.32s-.13-.32-.4-.57a4,4,0,0,1-1.4-3,3.38,3.38,0,0,1,.49-1.74A4.41,4.41,0,0,1,207,242a8.69,8.69,0,0,1,4.85-1.42,11.78,11.78,0,0,1,2.36.27,10.7,10.7,0,0,0,1.7.24,4.76,4.76,0,0,0,2.94-1.16A.94.94,0,0,1,219.34,239.63ZM209,254.79c-.22,0-.34.14-.34.4a1.47,1.47,0,0,0,.87,1.29,4.53,4.53,0,0,0,2.26.5,5.1,5.1,0,0,0,2.08-.35,1.1,1.1,0,0,0,.75-1,.72.72,0,0,0-.28-.57,1.07,1.07,0,0,0-.71-.24c-.14,0-.35,0-.62.05a9.87,9.87,0,0,1-1.7.13,11.49,11.49,0,0,1-1.33-.07,5.42,5.42,0,0,1-.77-.11Zm3-12.35a1.31,1.31,0,0,0-1.09.52,2.09,2.09,0,0,0-.41,1.37,5.21,5.21,0,0,0,.44,2.35,1.32,1.32,0,0,0,2.32.33,2.38,2.38,0,0,0,.43-1.47,4.69,4.69,0,0,0-.45-2.26A1.42,1.42,0,0,0,212,242.44Z"/>
    <path class="cls-24" d="M232.17,240.35a7.49,7.49,0,0,1,4.35,1.29,6.93,6.93,0,0,1,2.16,2.4,6.68,6.68,0,0,1,.84,3.23,6.12,6.12,0,0,1-2.7,5,9.49,9.49,0,0,1-5.9,2,7.46,7.46,0,0,1-5.26-1.84,6.07,6.07,0,0,1-1.95-4.67,6.56,6.56,0,0,1,2.39-5.24A9,9,0,0,1,232.17,240.35Zm-1.09,3.14a1.16,1.16,0,0,0-1,.44,1.78,1.78,0,0,0-.36,1.17,11.33,11.33,0,0,0,.31,2.22,15.12,15.12,0,0,0,.73,2.49,1.44,1.44,0,0,0,1.37,1.11q1.2,0,1.2-1.53a13,13,0,0,0-.3-2.59,10.31,10.31,0,0,0-.74-2.36A1.44,1.44,0,0,0,231.08,243.49Z"/>
    <path class="cls-25" d="M78.09,188.76l.58-16.17L49.06,173l-.39-25.13q12.86,0,29.42-.39V138.3H55.3l.19-15.19q0-24.73-.39-50.65l23.57-1V63.69q-10.71.39-29.22.58l-.39-25.13q12.66,0,29-.39L77.7,29.6l26.88-2.15.78,10.13q12.28,0,27.67-.19h0a24.73,24.73,0,0,1-24.25,25.66l-3,.06v7.4l10.33-.2q17.15,1.36,17.14,20.46,0,20.66-2.14,46.37-15,.57-26.5.77l.59,8.58q12.47,0,29.42-.59h0a24.93,24.93,0,0,1-24.46,26l-4.57.08.19,17.72Zm7.6-90.2,21.43-.19.19-2.54q0-5.06-3.31-5.45-1.95-.59-11.1-.58L80,90l.19,8.57ZM80.23,121q17.73,0,26.3-.59l.39-8.18-26.69.58ZM186,190.9l-27.28-.19q.39-13.83.59-51.63-2.73,0-22.41,1.17l-.78-25.33q14.63-.77,23.58-1.36l.19-10.13a143.55,143.55,0,0,1-16.75,1.17L143,78.88q9.54-.39,16.95-1.16V67.39q-6.43.58-19.87,1l-.39-25.72q12.66-.19,20.07-1,0-6-.2-12.67l25.91-1.56V40.31q22.22-.78,36-1l.05,1.27a24.7,24.7,0,0,1-23.84,25.61l-11.86.39v9.74l33.12-1.56,1.17,25.52q-6,.8-34.09,1.76v10.52q12.27-.59,16.56-.59a55.73,55.73,0,0,1,13.63,1.37q5.26,1.36,8.38,8.37,2.73,8,2.73,21,0,6.24-.2,13.25a69,69,0,0,1-1.75,13.73q-1.56,6.74-5.85,9.55c-2.85,1.88-6.56,2.83-11.1,2.83h-.11c-10.13-.07-18.34-8.34-19-18.44l-.73-10.79q9.73,3.32,12.27,3.32,1.17,0,1.17-3.12v-7.6c0-4.93-1.3-7.47-3.9-7.6q-4.67,0-12.07.39Z"/>
</svg>