<svg
    xmlns="http://www.w3.org/2000/svg" viewBox="0 0 387.83 141.26">
    <defs>
        <style>.cls-31{fill:props.fill ? props.fill: #e94619;}.cls-32{fill:#fff;}</style>
    </defs>
    <path class="cls-31" d="M166.55,111.2c3.16,0,4.74.66,4.74,2a1.45,1.45,0,0,1-.24.87,3.13,3.13,0,0,1-.93.74,1.63,1.63,0,0,0-.75,1,11.15,11.15,0,0,0-.16,2.4c0,.71.13,1.15.39,1.31a1.51,1.51,0,0,0,.7.18c.3,0,1,0,2.18,0a6.62,6.62,0,0,0,1.94-.16c.25-.11.38-.39.38-.84a14.62,14.62,0,0,0-.18-2.8,1.57,1.57,0,0,0-.71-1.08,3.51,3.51,0,0,1-.89-.64,1.11,1.11,0,0,1-.21-.71,1.65,1.65,0,0,1,.47-1.13,2.42,2.42,0,0,1,1.23-.69,17,17,0,0,1,4-.38,12.35,12.35,0,0,1,4.13.51c.88.34,1.33.86,1.33,1.58a1.47,1.47,0,0,1-.94,1.37,2.05,2.05,0,0,0-.78.53,2.29,2.29,0,0,0-.29.93c0,.26-.09,1.38-.15,3.38s-.09,3.58-.09,4.75a19.26,19.26,0,0,0,.23,3.93,1.4,1.4,0,0,0,.27.6,5.17,5.17,0,0,0,1,.61,1.06,1.06,0,0,1,.57,1,1.76,1.76,0,0,1-1.37,1.67,13.58,13.58,0,0,1-4.46.53,11.28,11.28,0,0,1-4-.53,1.61,1.61,0,0,1-1.17-1.51,1.48,1.48,0,0,1,.9-1.35,1.64,1.64,0,0,0,.6-.49,3.21,3.21,0,0,0,.31-.89,15.44,15.44,0,0,0,.27-3.13c0-.64-.09-1-.28-1.19a2.86,2.86,0,0,0-1.47-.23,11.46,11.46,0,0,0-3.46.31c-.2.08-.33.31-.38.71a15,15,0,0,0-.09,1.79,4.89,4.89,0,0,0,.48,2.5,3,3,0,0,0,.79.62,1.26,1.26,0,0,1,.64,1.2c0,.71-.49,1.25-1.47,1.63a12.44,12.44,0,0,1-4.21.56,13.28,13.28,0,0,1-4.08-.52,2.61,2.61,0,0,1-1.07-.64,1.33,1.33,0,0,1-.39-.92,1.14,1.14,0,0,1,.25-.78,4.17,4.17,0,0,1,1.06-.7,1.21,1.21,0,0,0,.6-.55,3.29,3.29,0,0,0,.27-1.12,38.26,38.26,0,0,0,.23-4.65c0-.36,0-.78,0-1.26,0-2.44-.06-3.82-.06-4.17a3.92,3.92,0,0,0-.22-1.72,2.93,2.93,0,0,0-1.24-.92,1,1,0,0,1-.67-1c0-1,1-1.73,3-2.13A18.21,18.21,0,0,1,166.55,111.2Z"/>
    <path class="cls-31" d="M196.73,117.13a7.44,7.44,0,0,1,4.49,1.34,4,4,0,0,1,1.36,1.63,6.68,6.68,0,0,1,.39,2.53l0,2.27a8.7,8.7,0,0,0,.33,3,1,1,0,0,0,.32.43,2,2,0,0,0,.64.17.55.55,0,0,1,.48.63,2.6,2.6,0,0,1-.58,1.53,5.1,5.1,0,0,1-1.51,1.32,4.71,4.71,0,0,1-2.39.66,3.12,3.12,0,0,1-2.52-1.09c-.22-.26-.41-.39-.6-.39a1.44,1.44,0,0,0-.8.38,5.72,5.72,0,0,1-3.45,1.1,5.58,5.58,0,0,1-3.23-.85,4.15,4.15,0,0,1-1.74-3.36,3.75,3.75,0,0,1,1.27-2.79q2-1.92,6-1.93a2.1,2.1,0,0,0,1.11-.18c.15-.11.23-.38.23-.81a6,6,0,0,0-.33-2.33,1.15,1.15,0,0,0-1.1-.73,1.27,1.27,0,0,0-.81.28,4.7,4.7,0,0,0-.89,1c-.9,1.29-1.85,1.93-2.83,1.93a1.66,1.66,0,0,1-1.21-.44,1.49,1.49,0,0,1-.48-1.15,2.32,2.32,0,0,1,.59-1.46,5.06,5.06,0,0,1,1.59-1.28A12.12,12.12,0,0,1,196.73,117.13Zm-1,8.8a1.51,1.51,0,0,0-1.16.55,1.87,1.87,0,0,0-.49,1.31,1.81,1.81,0,0,0,.35,1.17,1.11,1.11,0,0,0,.92.45c.82,0,1.22-.68,1.22-2a2.5,2.5,0,0,0-.17-1.12A.74.74,0,0,0,195.71,125.93Z"/>
    <path class="cls-31" d="M227.25,122.76l.22,5.34a2.08,2.08,0,0,0,.19.9,6.66,6.66,0,0,0,.93,1.11,1,1,0,0,1,.23.69c0,.66-.4,1.13-1.2,1.39a15.38,15.38,0,0,1-4.29.4,8.22,8.22,0,0,1-3-.37,1.27,1.27,0,0,1-.9-1.23.83.83,0,0,1,.09-.44,7.25,7.25,0,0,1,.61-.71c.41-.43.61-1.85.61-4.26a7.36,7.36,0,0,0-.49-3.1,1.76,1.76,0,0,0-2.86-.15,5.19,5.19,0,0,0-.38,2.37v3a4.17,4.17,0,0,0,.12,1.23,6.88,6.88,0,0,0,.75,1.29,1.21,1.21,0,0,1,.17.63c0,.6-.42,1-1.25,1.32a13.17,13.17,0,0,1-3.89.42q-4.23,0-4.23-1.74a1.05,1.05,0,0,1,.13-.56,2.62,2.62,0,0,1,.62-.54,1.25,1.25,0,0,0,.5-.66,11.75,11.75,0,0,0,.2-1.83c.07-1.16.1-2.37.1-3.63a3.7,3.7,0,0,0-.16-1.38,2.5,2.5,0,0,0-.91-.8,1.18,1.18,0,0,1-.66-1,1.2,1.2,0,0,1,.53-1,11,11,0,0,1,2.19-1c1-.34,1.91-.63,2.82-.87a8.83,8.83,0,0,1,1.85-.36,1,1,0,0,1,.77.34,1.09,1.09,0,0,1,.31.79s0,.15,0,.38a1.62,1.62,0,0,0,0,.21c0,.49.2.73.61.73.24,0,.5-.19.77-.58a4.35,4.35,0,0,1,3.8-1.88,5.42,5.42,0,0,1,3.29,1,3.92,3.92,0,0,1,1.33,1.68A9.16,9.16,0,0,1,227.25,122.76Z"/>
    <path class="cls-31" d="M240,117.22a2.6,2.6,0,0,1,1.16.16c.15.11.23.37.23.8s.12.56.36.56a3.85,3.85,0,0,0,1-.58,5.9,5.9,0,0,1,1.67-.73,6.45,6.45,0,0,1,1.83-.3,5.11,5.11,0,0,1,3.45,1.34,6.72,6.72,0,0,1,1.79,2.57,8.8,8.8,0,0,1,.67,3.42,8.39,8.39,0,0,1-2.58,6.31,6.36,6.36,0,0,1-4.53,1.92,6.56,6.56,0,0,1-2.66-.6A1.21,1.21,0,0,0,242,132c-.31,0-.46.3-.46.91a1.91,1.91,0,0,0,.81,1.73,5.32,5.32,0,0,1,.88.68.88.88,0,0,1,.15.58,1.54,1.54,0,0,1-1,1.41,6.74,6.74,0,0,1-2.87.49,12.11,12.11,0,0,1-5.78-1.32,1.93,1.93,0,0,1-1.26-1.66,1.07,1.07,0,0,1,.19-.69,2.08,2.08,0,0,1,.74-.49,1.71,1.71,0,0,0,1-1.32,51.36,51.36,0,0,0,.27-5.51,25.5,25.5,0,0,0-.28-4.19.35.35,0,0,0-.17-.2,6.64,6.64,0,0,0-.75-.17,1.29,1.29,0,0,1-.79-.45,1.23,1.23,0,0,1-.31-.86,1.52,1.52,0,0,1,.43-1.07,4.21,4.21,0,0,1,1.38-.9A15.93,15.93,0,0,1,240,117.22Zm1.51,5.75-.23,4.18c0,.17,0,.34,0,.5a.88.88,0,0,0,.41.76,1.88,1.88,0,0,0,1.09.29q2.1,0,2.1-3.45a4.53,4.53,0,0,0-.88-3.15,1.79,1.79,0,0,0-1.31-.56C242,121.54,241.57,122,241.51,123Z"/>
    <path class="cls-31" d="M264.84,118.19V127a4.4,4.4,0,0,0,.19,1.53,2.06,2.06,0,0,0,.77.9,2.63,2.63,0,0,1,.63.57,1.11,1.11,0,0,1,.16.6q0,2-5,2a16.57,16.57,0,0,1-4.25-.43,1.7,1.7,0,0,1-.85-.53,1.27,1.27,0,0,1-.33-.86,1.06,1.06,0,0,1,.17-.64,4,4,0,0,1,.85-.73,2.06,2.06,0,0,0,.67-1.14,10.66,10.66,0,0,0,.19-2.36c0-.33,0-1-.06-1.88s-.08-1.45-.1-1.6a1.3,1.3,0,0,0-.85-1,1.32,1.32,0,0,1-.95-1.21c0-.64.41-1.12,1.23-1.43a27.34,27.34,0,0,1,3.65-1.11,13.92,13.92,0,0,1,3-.46C264.56,117.25,264.84,117.57,264.84,118.19Zm-3-6.65a3.89,3.89,0,0,1,2.1.49,1.52,1.52,0,0,1,.77,1.33,2.06,2.06,0,0,1-1.17,1.85,8.74,8.74,0,0,1-4.48,1.08,3.27,3.27,0,0,1-1.77-.42,1.72,1.72,0,0,1-.88-1.52c0-.87.63-1.56,1.87-2A9.55,9.55,0,0,1,261.83,111.54Z"/>
    <path class="cls-31" d="M289,122.76l.21,5.34a2.08,2.08,0,0,0,.19.9,7.24,7.24,0,0,0,.93,1.11,1,1,0,0,1,.23.69c0,.66-.4,1.13-1.2,1.39a15.38,15.38,0,0,1-4.29.4,8.26,8.26,0,0,1-3-.37,1.27,1.27,0,0,1-.9-1.23.83.83,0,0,1,.09-.44,9.19,9.19,0,0,1,.61-.71c.41-.43.61-1.85.61-4.26a7.36,7.36,0,0,0-.49-3.1,1.75,1.75,0,0,0-2.85-.15,5.06,5.06,0,0,0-.38,2.37v3a4.27,4.27,0,0,0,.11,1.23,8.33,8.33,0,0,0,.75,1.29,1.21,1.21,0,0,1,.17.63c0,.6-.42,1-1.25,1.32a13.17,13.17,0,0,1-3.89.42c-2.82,0-4.22-.58-4.22-1.74a1,1,0,0,1,.13-.56,2.51,2.51,0,0,1,.61-.54,1.25,1.25,0,0,0,.5-.66,11.75,11.75,0,0,0,.2-1.83c.07-1.16.11-2.37.11-3.63a3.93,3.93,0,0,0-.16-1.38,2.65,2.65,0,0,0-.92-.8,1.14,1.14,0,0,1-.12-2,10.58,10.58,0,0,1,2.18-1c1-.34,1.91-.63,2.82-.87a8.83,8.83,0,0,1,1.85-.36,1,1,0,0,1,.77.34,1.09,1.09,0,0,1,.31.79s0,.15,0,.38a.82.82,0,0,0,0,.21c0,.49.2.73.61.73.24,0,.5-.19.77-.58a4.35,4.35,0,0,1,3.8-1.88,5.42,5.42,0,0,1,3.29,1,3.92,3.92,0,0,1,1.33,1.68A9.41,9.41,0,0,1,289,122.76Z"/>
    <path class="cls-31" d="M321.65,116.32a.82.82,0,0,1,.67.44,1.79,1.79,0,0,1,.29,1,3.28,3.28,0,0,1-.39,1.41,3.9,3.9,0,0,1-.93,1.26c-.24.21-.35.37-.35.49s0,.15,0,.36a4.24,4.24,0,0,1,0,.58,4.15,4.15,0,0,1-1.21,3,7.32,7.32,0,0,1-2.82,1.7,11.26,11.26,0,0,1-3.8.61,7.93,7.93,0,0,1-1-.06,5.67,5.67,0,0,0-.61,0,.71.71,0,0,0-.81.8.92.92,0,0,0,.53.82,3,3,0,0,0,1.42.29,12.7,12.7,0,0,0,1.79-.17,29.6,29.6,0,0,1,3.68-.34,5.37,5.37,0,0,1,2.78.59,3.3,3.3,0,0,1,1.26,1.28,3.48,3.48,0,0,1,.46,1.76,4.88,4.88,0,0,1-1.12,3,7.94,7.94,0,0,1-3.94,2.52,15.65,15.65,0,0,1-4.71.64,12.46,12.46,0,0,1-5.48-1A4.35,4.35,0,0,1,305.9,136a2.79,2.79,0,0,1-.57-1.64,2,2,0,0,1,.32-1.1,1.88,1.88,0,0,1,.83-.71c.3-.12.46-.25.46-.4s-.13-.27-.38-.48a2.85,2.85,0,0,1-1.22-2.12,2.54,2.54,0,0,1,.59-1.5,3.92,3.92,0,0,1,1.45-1.2c.24-.12.36-.24.36-.37s-.15-.35-.45-.64a4.42,4.42,0,0,1-1.57-3.37,3.66,3.66,0,0,1,.56-2,5,5,0,0,1,1.54-1.58,9.74,9.74,0,0,1,5.42-1.59,13.2,13.2,0,0,1,2.65.3,12.28,12.28,0,0,0,1.9.28,5.33,5.33,0,0,0,3.3-1.31A1.14,1.14,0,0,1,321.65,116.32Zm-11.57,17c-.25,0-.38.15-.38.44a1.66,1.66,0,0,0,1,1.46,5,5,0,0,0,2.52.55,5.48,5.48,0,0,0,2.33-.4,1.23,1.23,0,0,0,.85-1.1.82.82,0,0,0-.32-.65,1.2,1.2,0,0,0-.79-.27,5.61,5.61,0,0,0-.7.06,11.07,11.07,0,0,1-1.9.14,14.19,14.19,0,0,1-1.49-.07,5.06,5.06,0,0,1-.87-.13Zm3.32-13.83a1.49,1.49,0,0,0-1.23.58,2.37,2.37,0,0,0-.46,1.53,5.86,5.86,0,0,0,.5,2.63,1.48,1.48,0,0,0,2.6.38,2.67,2.67,0,0,0,.47-1.65,5.31,5.31,0,0,0-.49-2.53A1.58,1.58,0,0,0,313.4,119.47Z"/>
    <path class="cls-31" d="M336,117.13a8.4,8.4,0,0,1,4.88,1.44,7.69,7.69,0,0,1,2.42,2.7,7.42,7.42,0,0,1,.94,3.61,6.88,6.88,0,0,1-3,5.61,10.62,10.62,0,0,1-6.62,2.2,8.34,8.34,0,0,1-5.88-2.06,6.77,6.77,0,0,1-2.19-5.23,7.35,7.35,0,0,1,2.68-5.87A10.07,10.07,0,0,1,336,117.13Zm-1.21,3.51a1.32,1.32,0,0,0-1.07.49,2,2,0,0,0-.41,1.32,13.06,13.06,0,0,0,.34,2.49,19,19,0,0,0,.82,2.79A1.6,1.6,0,0,0,336,129c.9,0,1.36-.57,1.36-1.72a14.22,14.22,0,0,0-.35-2.9,11.14,11.14,0,0,0-.83-2.64A1.61,1.61,0,0,0,334.8,120.64Z"/>
    <path class="cls-31" d="M364.62,116.32a.84.84,0,0,1,.67.44,1.78,1.78,0,0,1,.28,1,3.25,3.25,0,0,1-.38,1.41,3.78,3.78,0,0,1-.94,1.26c-.23.21-.35.37-.35.49s0,.15,0,.36a4.4,4.4,0,0,1,.05.58,4.15,4.15,0,0,1-1.22,3,7.32,7.32,0,0,1-2.82,1.7,11.2,11.2,0,0,1-3.79.61,8.22,8.22,0,0,1-1-.06,5.38,5.38,0,0,0-.61,0,.71.71,0,0,0-.8.8.9.9,0,0,0,.52.82,3,3,0,0,0,1.42.29,12.69,12.69,0,0,0,1.8-.17,29.6,29.6,0,0,1,3.68-.34,5.4,5.4,0,0,1,2.78.59,3.28,3.28,0,0,1,1.25,1.28,3.49,3.49,0,0,1,.47,1.76,4.83,4.83,0,0,1-1.13,3,7.85,7.85,0,0,1-3.94,2.52,15.55,15.55,0,0,1-4.71.64,12.41,12.41,0,0,1-5.47-1,4.19,4.19,0,0,1-1.55-1.28,2.74,2.74,0,0,1-.58-1.64,2,2,0,0,1,.33-1.1,1.83,1.83,0,0,1,.83-.71c.3-.12.45-.25.45-.4s-.12-.27-.38-.48a2.83,2.83,0,0,1-1.21-2.12,2.52,2.52,0,0,1,.58-1.5,4,4,0,0,1,1.45-1.2c.25-.12.37-.24.37-.37s-.15-.35-.46-.64a4.45,4.45,0,0,1-1.56-3.37,3.74,3.74,0,0,1,.55-2,5.14,5.14,0,0,1,1.54-1.58,9.77,9.77,0,0,1,5.43-1.59,13.35,13.35,0,0,1,2.65.3,12.28,12.28,0,0,0,1.9.28,5.28,5.28,0,0,0,3.29-1.31A1.2,1.2,0,0,1,364.62,116.32Zm-11.57,17c-.25,0-.38.15-.38.44a1.65,1.65,0,0,0,1,1.46,5.07,5.07,0,0,0,2.53.55,5.48,5.48,0,0,0,2.33-.4,1.21,1.21,0,0,0,.84-1.1.8.8,0,0,0-.32-.65,1.17,1.17,0,0,0-.79-.27,5.93,5.93,0,0,0-.7.06,11,11,0,0,1-1.9.14,14.45,14.45,0,0,1-1.49-.07,5.09,5.09,0,0,1-.86-.13Zm3.31-13.83a1.48,1.48,0,0,0-1.22.58,2.37,2.37,0,0,0-.46,1.53,5.73,5.73,0,0,0,.5,2.63,1.49,1.49,0,0,0,1.32,1,1.53,1.53,0,0,0,1.28-.61,2.67,2.67,0,0,0,.47-1.65,5.3,5.3,0,0,0-.5-2.53A1.58,1.58,0,0,0,356.36,119.47Z"/>
    <path class="cls-31" d="M379,117.13a8.43,8.43,0,0,1,4.88,1.44,7.66,7.66,0,0,1,2.41,2.7,7.44,7.44,0,0,1,1,3.61,6.86,6.86,0,0,1-3,5.61,10.59,10.59,0,0,1-6.61,2.2,8.34,8.34,0,0,1-5.88-2.06,6.77,6.77,0,0,1-2.19-5.23,7.37,7.37,0,0,1,2.67-5.87A10.09,10.09,0,0,1,379,117.13Zm-1.22,3.51a1.34,1.34,0,0,0-1.07.49,2,2,0,0,0-.4,1.32,12.29,12.29,0,0,0,.34,2.49,20.34,20.34,0,0,0,.81,2.79A1.62,1.62,0,0,0,379,129c.9,0,1.35-.57,1.35-1.72a14.15,14.15,0,0,0-.34-2.9,11.62,11.62,0,0,0-.83-2.64A1.61,1.61,0,0,0,377.76,120.64Z"/>
    <path class="cls-31" d="M176.08,104.16l.37-10L158,94.35l-.25-15.62q8,0,18.29-.25V72.79H161.91l.12-9.44q0-15.39-.24-31.49l14.66-.61V26.41q-6.67.24-18.17.36L158,11.15q7.86,0,18-.25l-.24-5.69,16.71-1.33.49,6.3q7.62,0,17.2-.12h0a15.39,15.39,0,0,1-15.08,16l-1.88,0v4.61l6.42-.13q10.65.86,10.66,12.72,0,12.84-1.34,28.83-9.32.36-16.47.48l.37,5.33q7.74,0,18.28-.37h0A15.48,15.48,0,0,1,196,93.7l-2.84,0,.12,11Zm4.73-56.07L194.13,48l.12-1.57c0-2.1-.69-3.23-2.06-3.39a36.21,36.21,0,0,0-6.9-.36l-8,.12.12,5.33ZM177.41,62q11,0,16.35-.36l.25-5.09-16.6.37Zm65.77,43.48-17-.12q.24-8.59.37-32.09-1.71,0-13.93.72l-.49-15.74q9.09-.48,14.66-.85l.12-6.3a88.2,88.2,0,0,1-10.42.73l-.12-16q5.94-.24,10.54-.72V28.71q-4,.36-12.35.6l-.25-16q7.88-.12,12.48-.61c0-2.5,0-5.13-.12-7.87l16.1-1v8q13.81-.48,22.41-.6l0,.79A15.36,15.36,0,0,1,250.43,28l-7.37.24v6.06l20.58-1,.73,15.86q-3.75.49-21.19,1.09V56.8c5.08-.24,8.52-.36,10.29-.36a34.52,34.52,0,0,1,8.48.85c2.18.56,3.91,2.3,5.21,5.21a41.48,41.48,0,0,1,1.69,13.08c0,2.58,0,5.33-.12,8.23a42.66,42.66,0,0,1-1.09,8.54A9.22,9.22,0,0,1,264,98.28a12.35,12.35,0,0,1-6.9,1.76H257a12.16,12.16,0,0,1-11.83-11.46l-.46-6.71c4,1.38,6.58,2.06,7.63,2.06.49,0,.73-.64.73-1.93V77.27c0-3.06-.81-4.64-2.42-4.72-1.94,0-4.45.08-7.51.24Z"/>
    <path class="cls-31" d="M281.81,105.49l.12-11q0-19.38-1.57-36.57l16.71-2.79.37,3.75a194.71,194.71,0,0,1,20.46-1.21q13.69.74,13.69,18.77,0,5.74-.53,13.81a15.38,15.38,0,0,1-15.18,14.37Q298.26,104.8,281.81,105.49Zm10.18-55V39.61q0-17.08-1.58-34.4L308,2.55l.61,3.87Q325.65,5,361.74,5q14.65,1,14.66,18.89,0,4.2-.5,10.77A15.36,15.36,0,0,1,361,48.79Zm5.69,38.75q6.66,0,16.11-.6a53.21,53.21,0,0,0,.72-9.33V76.67q0-4.12-3.87-4.12a82.3,82.3,0,0,0-13.08,1Q297.68,84.29,297.68,89.26ZM308.94,34.4q14.42,0,48.57-1.45a34.11,34.11,0,0,0,.72-6.54V24.83c0-2.82-1.09-4.44-3.27-4.84a55.09,55.09,0,0,0-9.2-.49q-11.75,0-37.06,1.21Q308.94,28.83,308.94,34.4Zm29.67,70.85v-11q0-19.5-1.57-36.7l16.47-2.66.61,3.63q12.11-1.09,21.19-1.09,13.92.86,13.93,18.77,0,5.7-.57,13.77a15.35,15.35,0,0,1-15.06,14.3Q356.92,104.49,338.61,105.25Zm16-16.35q5,0,16.83-.61a52.07,52.07,0,0,0,.73-9.32V77.51q0-4.47-3.15-5.33h-2.18a69.24,69.24,0,0,0-12.59,1Q354.6,83.94,354.6,88.9Z"/>
    <rect class="cls-31" y="-0.04" width="141.3" height="141.3" rx="23.09"/>
    <path class="cls-32" d="M17.08,98.17l.2-5.52-10.12.13L7,84.19q4.4,0,10-.13V80.93H9.29l.07-5.19q0-8.46-.13-17.32l8.05-.33V55.43c-2.44.09-5.77.15-10,.2L7.16,47q4.34,0,9.92-.14L17,43.78,26.14,43l.27,3.46q4.18,0,9.45-.06h0a8.45,8.45,0,0,1-8.29,8.77l-1,0v2.53l3.53-.07q5.85.47,5.86,7,0,7.06-.73,15.85-5.13.19-9.06.27l.2,2.93q4.26,0,10.05-.2h0A8.5,8.5,0,0,1,28,92.42l-1.56,0,.07,6.06Zm2.6-30.82L27,67.28l.06-.87c0-1.15-.38-1.77-1.13-1.86a20,20,0,0,0-3.79-.2l-4.4.07.07,2.93ZM17.82,75c4,0,7-.06,9-.2L26.94,72l-9.12.2ZM54,98.91l-9.32-.07q.14-4.73.2-17.64-.93,0-7.66.4l-.26-8.66c3.33-.18,6-.33,8-.47L45.05,69a48.33,48.33,0,0,1-5.73.4l-.06-8.79q3.26-.13,5.79-.4V56.69q-2.2.21-6.79.34l-.14-8.79q4.34-.08,6.86-.34,0-2.05-.06-4.32L53.77,43v4.4q7.59-.27,12.32-.34l0,.44A8.44,8.44,0,0,1,58,56.29l-4.05.14v3.33l11.31-.54.4,8.73q-2.06.26-11.65.59v3.6c2.8-.13,4.68-.2,5.66-.2a19.11,19.11,0,0,1,4.66.47,4.56,4.56,0,0,1,2.87,2.86,22.85,22.85,0,0,1,.93,7.19c0,1.42,0,2.93-.07,4.53a22.9,22.9,0,0,1-.6,4.69,5,5,0,0,1-2,3.26,6.7,6.7,0,0,1-3.79,1h0a6.68,6.68,0,0,1-6.5-6.3l-.25-3.69A18.6,18.6,0,0,0,59,87.05c.27,0,.4-.35.4-1.06v-2.6c0-1.68-.44-2.55-1.33-2.59-1.07,0-2.44,0-4.13.13Z"/>
    <path class="cls-32" d="M75.21,98.91l.07-6.06q0-10.65-.87-20.11l9.19-1.53.2,2.06a107,107,0,0,1,11.25-.66q7.53.39,7.53,10.32,0,3.15-.29,7.58a8.47,8.47,0,0,1-8.35,7.91Q84.25,98.53,75.21,98.91Zm5.6-30.23v-6q0-9.37-.87-18.9l9.65-1.47.34,2.13q9.39-.8,29.23-.8,8.06.54,8,10.39,0,2.31-.27,5.92a8.44,8.44,0,0,1-8.21,7.78ZM83.93,90q3.67,0,8.86-.33a28.57,28.57,0,0,0,.4-5.13V83.06c0-1.51-.71-2.26-2.13-2.26a45,45,0,0,0-7.19.53Q83.93,87.26,83.93,90Zm6.2-30.16q7.92,0,26.7-.8a19,19,0,0,0,.4-3.59v-.87c0-1.55-.6-2.44-1.8-2.66a29.91,29.91,0,0,0-5.06-.27q-6.47,0-20.38.67Q90.13,56.76,90.13,59.82Zm16.31,38.95V92.71q0-10.71-.87-20.17l9.06-1.47.33,2q6.66-.6,11.65-.6,7.67.47,7.66,10.32,0,3.13-.31,7.57a8.45,8.45,0,0,1-8.28,7.87Q116.5,98.35,106.44,98.77Zm8.79-9q2.73,0,9.25-.33a28.57,28.57,0,0,0,.4-5.13v-.79c0-1.65-.57-2.62-1.73-2.93H122a37.37,37.37,0,0,0-6.92.53C115.16,85.08,115.23,88,115.23,89.78Z"/>
</svg>