<svg id="레이어_1" data-name="레이어 1"
    xmlns="http://www.w3.org/2000/svg" viewBox="0 0 387.83 140.79">
    <defs>
        <style>.cls-41{fill:props.fill ? props.fill : #e94619;}.cls-42{fill:#fff;}</style>
    </defs>
    <path class="cls-41" d="M165.94,110.84q4.73,0,4.73,2a1.43,1.43,0,0,1-.24.86,3.13,3.13,0,0,1-.93.75,1.62,1.62,0,0,0-.75.95,11.93,11.93,0,0,0-.15,2.39c0,.71.13,1.14.39,1.31a1.43,1.43,0,0,0,.69.18c.31,0,1,0,2.17,0a6.49,6.49,0,0,0,1.94-.17c.25-.11.38-.39.38-.83a14.56,14.56,0,0,0-.18-2.79,1.51,1.51,0,0,0-.72-1.07,3.29,3.29,0,0,1-.87-.65,1,1,0,0,1-.22-.7,1.63,1.63,0,0,1,.47-1.13,2.42,2.42,0,0,1,1.23-.69,17.42,17.42,0,0,1,4-.38,12.32,12.32,0,0,1,4.12.51c.88.34,1.32.86,1.32,1.58a1.46,1.46,0,0,1-.94,1.37,2,2,0,0,0-.77.52,2.29,2.29,0,0,0-.29.93q-.06.38-.15,3.36t-.09,4.74a19.88,19.88,0,0,0,.23,3.91,1.52,1.52,0,0,0,.27.61,6.28,6.28,0,0,0,.95.6,1,1,0,0,1,.58,1,1.77,1.77,0,0,1-1.37,1.67,13.55,13.55,0,0,1-4.45.53,11.23,11.23,0,0,1-4-.53,1.61,1.61,0,0,1-1.17-1.5,1.48,1.48,0,0,1,.9-1.35,1.74,1.74,0,0,0,.6-.48,3.71,3.71,0,0,0,.31-.9,15.34,15.34,0,0,0,.27-3.12c0-.63-.09-1-.28-1.18a2.84,2.84,0,0,0-1.46-.23,11.46,11.46,0,0,0-3.46.31c-.2.08-.32.31-.37.71a12.79,12.79,0,0,0-.1,1.78,4.86,4.86,0,0,0,.49,2.49,2.67,2.67,0,0,0,.79.62,1.27,1.27,0,0,1,.63,1.19c0,.71-.49,1.25-1.47,1.63a12.35,12.35,0,0,1-4.19.56,13.4,13.4,0,0,1-4.06-.52,2.45,2.45,0,0,1-1.07-.64,1.32,1.32,0,0,1-.38-.92,1.13,1.13,0,0,1,.24-.77,4.17,4.17,0,0,1,1.06-.7,1.33,1.33,0,0,0,.6-.54,3.76,3.76,0,0,0,.26-1.12,38.2,38.2,0,0,0,.23-4.64c0-.35,0-.77,0-1.25,0-2.43-.06-3.81-.06-4.15a3.89,3.89,0,0,0-.22-1.72,2.88,2.88,0,0,0-1.23-.92,1,1,0,0,1-.67-1q0-1.53,3-2.13A18,18,0,0,1,165.94,110.84Z"/>
    <path class="cls-41" d="M196,116.74a7.38,7.38,0,0,1,4.47,1.34,3.87,3.87,0,0,1,1.35,1.62,6.68,6.68,0,0,1,.39,2.53l0,2.25a8.74,8.74,0,0,0,.33,3,1,1,0,0,0,.32.42,2,2,0,0,0,.64.17.55.55,0,0,1,.48.63,2.57,2.57,0,0,1-.58,1.52,5,5,0,0,1-1.51,1.32,4.67,4.67,0,0,1-2.38.66,3.1,3.1,0,0,1-2.51-1.09.85.85,0,0,0-.59-.39,1.52,1.52,0,0,0-.8.38,5.74,5.74,0,0,1-3.44,1.1,5.47,5.47,0,0,1-3.21-.85,4.15,4.15,0,0,1-1.74-3.34,3.75,3.75,0,0,1,1.27-2.79q2-1.9,5.93-1.92a2.1,2.1,0,0,0,1.11-.18c.15-.11.23-.38.23-.81a5.73,5.73,0,0,0-.34-2.32,1.12,1.12,0,0,0-1.09-.72,1.32,1.32,0,0,0-.81.27,5.33,5.33,0,0,0-.88,1q-1.35,1.92-2.82,1.92a1.67,1.67,0,0,1-1.21-.44,1.5,1.5,0,0,1-.47-1.15,2.3,2.3,0,0,1,.58-1.45,5,5,0,0,1,1.59-1.27A12,12,0,0,1,196,116.74Zm-1,8.77a1.51,1.51,0,0,0-1.15.55,1.85,1.85,0,0,0-.5,1.3,1.83,1.83,0,0,0,.35,1.17,1.11,1.11,0,0,0,.93.45c.8,0,1.21-.68,1.21-2a2.33,2.33,0,0,0-.18-1.12A.71.71,0,0,0,195,125.51Z"/>
    <path class="cls-41" d="M226.43,122.35l.21,5.33a2.23,2.23,0,0,0,.19.89,7.93,7.93,0,0,0,.93,1.11,1,1,0,0,1,.23.68c0,.67-.4,1.13-1.2,1.39a15.22,15.22,0,0,1-4.27.4,8.16,8.16,0,0,1-3-.37,1.26,1.26,0,0,1-.89-1.22.87.87,0,0,1,.09-.45,7.82,7.82,0,0,1,.6-.71c.41-.42.61-1.83.61-4.24a7.34,7.34,0,0,0-.49-3.09,1.76,1.76,0,0,0-2.84-.15,5.08,5.08,0,0,0-.38,2.37v3a4.24,4.24,0,0,0,.11,1.22,8.33,8.33,0,0,0,.75,1.29,1.18,1.18,0,0,1,.17.62c0,.6-.42,1-1.25,1.32a13,13,0,0,1-3.87.42c-2.81,0-4.21-.58-4.21-1.74a.93.93,0,0,1,.13-.55,2.51,2.51,0,0,1,.61-.54,1.25,1.25,0,0,0,.5-.66,11.73,11.73,0,0,0,.2-1.82c.07-1.15.1-2.36.1-3.62a3.7,3.7,0,0,0-.16-1.38,2.5,2.5,0,0,0-.91-.79,1.14,1.14,0,0,1-.12-2,9.58,9.58,0,0,1,2.18-1c1-.34,1.9-.63,2.8-.87a8.5,8.5,0,0,1,1.85-.35,1,1,0,0,1,.76.33,1.09,1.09,0,0,1,.31.78s0,.16,0,.38a2,2,0,0,0,0,.22c0,.48.2.72.61.72.24,0,.5-.19.77-.57a4.33,4.33,0,0,1,3.79-1.88,5.36,5.36,0,0,1,3.27,1,3.84,3.84,0,0,1,1.33,1.67A9.45,9.45,0,0,1,226.43,122.35Z"/>
    <path class="cls-41" d="M239.13,116.83a2.63,2.63,0,0,1,1.16.16c.15.11.22.37.22.8s.12.56.37.56a3.88,3.88,0,0,0,1-.58,6.12,6.12,0,0,1,1.66-.73,6.44,6.44,0,0,1,1.82-.3,5.05,5.05,0,0,1,3.44,1.34,6.68,6.68,0,0,1,1.79,2.56,8.92,8.92,0,0,1,.67,3.4,8.33,8.33,0,0,1-2.58,6.29,6.32,6.32,0,0,1-4.51,1.92,6.55,6.55,0,0,1-2.65-.6,1.21,1.21,0,0,0-.44-.12c-.3,0-.46.3-.46.9a1.91,1.91,0,0,0,.81,1.73,5.51,5.51,0,0,1,.88.67.93.93,0,0,1,.15.59,1.54,1.54,0,0,1-1,1.4,6.66,6.66,0,0,1-2.86.49,12.06,12.06,0,0,1-5.76-1.32,1.91,1.91,0,0,1-1.25-1.65,1.07,1.07,0,0,1,.19-.69,2.15,2.15,0,0,1,.73-.49,1.67,1.67,0,0,0,1-1.32,50.56,50.56,0,0,0,.27-5.48,25.44,25.44,0,0,0-.28-4.18.32.32,0,0,0-.17-.2c-.08,0-.33-.08-.75-.16a1.32,1.32,0,0,1-.79-.45,1.29,1.29,0,0,1-.3-.86,1.53,1.53,0,0,1,.42-1.06,4.44,4.44,0,0,1,1.38-.9A15.9,15.9,0,0,1,239.13,116.83Zm1.5,5.73-.22,4.16c0,.18,0,.34,0,.5a.89.89,0,0,0,.41.76,1.88,1.88,0,0,0,1.09.29c1.39,0,2.09-1.15,2.09-3.44a4.42,4.42,0,0,0-.88-3.13,1.73,1.73,0,0,0-1.3-.56C241.08,121.14,240.69,121.61,240.63,122.56Z"/>
    <path class="cls-41" d="M263.88,117.8v8.8a4.4,4.4,0,0,0,.19,1.53,2,2,0,0,0,.76.9,2.45,2.45,0,0,1,.63.56,1,1,0,0,1,.16.6q0,2-4.95,2a16.4,16.4,0,0,1-4.23-.43,1.7,1.7,0,0,1-.85-.53,1.27,1.27,0,0,1-.33-.86,1.08,1.08,0,0,1,.17-.64,4.36,4.36,0,0,1,.85-.72,2,2,0,0,0,.66-1.14,10.44,10.44,0,0,0,.2-2.35c0-.33,0-1-.07-1.87s-.08-1.44-.1-1.6a1.25,1.25,0,0,0-.85-1,1.32,1.32,0,0,1-.94-1.21c0-.64.41-1.11,1.23-1.43a27.78,27.78,0,0,1,3.64-1.1,14.26,14.26,0,0,1,3-.45C263.6,116.87,263.88,117.18,263.88,117.8Zm-3-6.63a3.85,3.85,0,0,1,2.09.49,1.52,1.52,0,0,1,.77,1.33,2.06,2.06,0,0,1-1.16,1.84,8.73,8.73,0,0,1-4.47,1.08,3.23,3.23,0,0,1-1.76-.42,1.72,1.72,0,0,1-.88-1.52c0-.87.62-1.55,1.87-2A9.46,9.46,0,0,1,260.88,111.17Z"/>
    <path class="cls-41" d="M288,122.35l.21,5.33a2.07,2.07,0,0,0,.19.89,7.24,7.24,0,0,0,.93,1.11,1,1,0,0,1,.23.68c0,.67-.4,1.13-1.2,1.39a15.26,15.26,0,0,1-4.27.4,8.16,8.16,0,0,1-2.95-.37,1.27,1.27,0,0,1-.9-1.22.87.87,0,0,1,.09-.45,8.79,8.79,0,0,1,.61-.71c.4-.42.6-1.83.6-4.24a7.53,7.53,0,0,0-.48-3.09,1.47,1.47,0,0,0-1.45-.8,1.5,1.5,0,0,0-1.4.65,5.25,5.25,0,0,0-.37,2.37v3a4.24,4.24,0,0,0,.11,1.22,6.88,6.88,0,0,0,.75,1.29,1.17,1.17,0,0,1,.16.62c0,.6-.41,1-1.24,1.32a13.06,13.06,0,0,1-3.87.42c-2.81,0-4.22-.58-4.22-1.74a1,1,0,0,1,.13-.55,2.62,2.62,0,0,1,.62-.54,1.25,1.25,0,0,0,.5-.66,12.25,12.25,0,0,0,.19-1.82c.07-1.15.11-2.36.11-3.62a3.7,3.7,0,0,0-.16-1.38,2.55,2.55,0,0,0-.92-.79,1.14,1.14,0,0,1-.12-2,9.8,9.8,0,0,1,2.18-1c1-.34,1.91-.63,2.81-.87a8.44,8.44,0,0,1,1.84-.35,1,1,0,0,1,.77.33,1.09,1.09,0,0,1,.31.78s0,.16,0,.38a1.77,1.77,0,0,0,0,.22q0,.72.6.72c.25,0,.5-.19.78-.57a4.32,4.32,0,0,1,3.78-1.88,5.37,5.37,0,0,1,3.28,1,3.91,3.91,0,0,1,1.33,1.67A9.45,9.45,0,0,1,288,122.35Z"/>
    <path class="cls-41" d="M320.48,115.94a.82.82,0,0,1,.67.43,1.81,1.81,0,0,1,.29,1,3.28,3.28,0,0,1-.39,1.41,4.13,4.13,0,0,1-.93,1.26c-.23.2-.35.36-.35.48s0,.15,0,.36a4.4,4.4,0,0,1,.05.58,4.18,4.18,0,0,1-1.21,3,7.46,7.46,0,0,1-2.81,1.69,11.18,11.18,0,0,1-3.78.61,8.22,8.22,0,0,1-1-.06,5.93,5.93,0,0,0-.6,0,.71.71,0,0,0-.8.81.9.9,0,0,0,.52.81,2.85,2.85,0,0,0,1.41.29,13.86,13.86,0,0,0,1.79-.16,28.07,28.07,0,0,1,3.67-.35,5.46,5.46,0,0,1,2.77.59,3.32,3.32,0,0,1,1.25,1.27,3.51,3.51,0,0,1,.46,1.76,4.77,4.77,0,0,1-1.12,3,7.86,7.86,0,0,1-3.92,2.51,15.58,15.58,0,0,1-4.7.64,12.46,12.46,0,0,1-5.45-1,4.27,4.27,0,0,1-1.55-1.28,2.74,2.74,0,0,1-.57-1.63,2,2,0,0,1,.32-1.09,1.82,1.82,0,0,1,.83-.71c.3-.13.45-.26.45-.4s-.12-.27-.38-.48a2.85,2.85,0,0,1-1.21-2.11,2.54,2.54,0,0,1,.59-1.5,4,4,0,0,1,1.44-1.19c.25-.12.37-.25.37-.37s-.15-.35-.46-.63a4.44,4.44,0,0,1-1.56-3.36,3.78,3.78,0,0,1,.55-1.94,4.93,4.93,0,0,1,1.54-1.58,9.71,9.71,0,0,1,5.41-1.59,13.09,13.09,0,0,1,2.63.3,12.28,12.28,0,0,0,1.9.28,5.25,5.25,0,0,0,3.28-1.31A1.13,1.13,0,0,1,320.48,115.94ZM309,132.86c-.25,0-.38.15-.38.44a1.65,1.65,0,0,0,1,1.45,5.1,5.1,0,0,0,2.51.55,5.48,5.48,0,0,0,2.33-.4,1.21,1.21,0,0,0,.84-1.1.84.84,0,0,0-.32-.65,1.21,1.21,0,0,0-.79-.26,5.64,5.64,0,0,0-.69.06,12.17,12.17,0,0,1-1.9.14,14.06,14.06,0,0,1-1.48-.08,6.58,6.58,0,0,1-.86-.12Zm3.3-13.78a1.5,1.5,0,0,0-1.22.57,2.38,2.38,0,0,0-.46,1.53,5.85,5.85,0,0,0,.5,2.62,1.49,1.49,0,0,0,1.32,1,1.52,1.52,0,0,0,1.27-.62,2.64,2.64,0,0,0,.47-1.64,5.42,5.42,0,0,0-.49-2.52A1.59,1.59,0,0,0,312.26,119.08Z"/>
    <path class="cls-41" d="M334.79,116.74a8.39,8.39,0,0,1,4.87,1.44,7.66,7.66,0,0,1,2.4,2.68,7.42,7.42,0,0,1,.94,3.61,6.84,6.84,0,0,1-3,5.59,10.6,10.6,0,0,1-6.59,2.19,8.29,8.29,0,0,1-5.86-2.06,6.75,6.75,0,0,1-2.18-5.21,7.33,7.33,0,0,1,2.66-5.84A10,10,0,0,1,334.79,116.74Zm-1.21,3.5a1.34,1.34,0,0,0-1.07.49,2.08,2.08,0,0,0-.4,1.32,12.89,12.89,0,0,0,.34,2.47,19.39,19.39,0,0,0,.81,2.78,1.62,1.62,0,0,0,1.53,1.24q1.35,0,1.35-1.71a14,14,0,0,0-.34-2.89,12.37,12.37,0,0,0-.82-2.64A1.61,1.61,0,0,0,333.58,120.24Z"/>
    <path class="cls-41" d="M363.29,115.94a.82.82,0,0,1,.67.43,1.81,1.81,0,0,1,.29,1,3.28,3.28,0,0,1-.39,1.41,4,4,0,0,1-.93,1.26c-.23.2-.35.36-.35.48s0,.15,0,.36a4.4,4.4,0,0,1,.05.58,4.18,4.18,0,0,1-1.21,3,7.46,7.46,0,0,1-2.81,1.69,11.18,11.18,0,0,1-3.78.61,8.22,8.22,0,0,1-1-.06,5.93,5.93,0,0,0-.6,0,.71.71,0,0,0-.8.81.9.9,0,0,0,.52.81,2.85,2.85,0,0,0,1.41.29,13.86,13.86,0,0,0,1.79-.16,28.07,28.07,0,0,1,3.67-.35,5.46,5.46,0,0,1,2.77.59,3.32,3.32,0,0,1,1.25,1.27,3.51,3.51,0,0,1,.46,1.76,4.77,4.77,0,0,1-1.12,3,7.86,7.86,0,0,1-3.92,2.51,15.58,15.58,0,0,1-4.7.64,12.46,12.46,0,0,1-5.45-1,4.27,4.27,0,0,1-1.55-1.28,2.74,2.74,0,0,1-.57-1.63,2,2,0,0,1,.32-1.09,1.82,1.82,0,0,1,.83-.71c.3-.13.45-.26.45-.4s-.12-.27-.37-.48A2.83,2.83,0,0,1,347,129.1a2.54,2.54,0,0,1,.59-1.5,4,4,0,0,1,1.44-1.19c.25-.12.37-.25.37-.37s-.15-.35-.46-.63a4.44,4.44,0,0,1-1.56-3.36,3.78,3.78,0,0,1,.55-1.94,4.93,4.93,0,0,1,1.54-1.58,9.71,9.71,0,0,1,5.41-1.59,13.09,13.09,0,0,1,2.63.3,12.28,12.28,0,0,0,1.9.28,5.25,5.25,0,0,0,3.28-1.31A1.13,1.13,0,0,1,363.29,115.94Zm-11.52,16.92c-.25,0-.38.15-.38.44a1.65,1.65,0,0,0,1,1.45,5.13,5.13,0,0,0,2.51.55,5.48,5.48,0,0,0,2.33-.4,1.21,1.21,0,0,0,.84-1.1.84.84,0,0,0-.32-.65,1.21,1.21,0,0,0-.79-.26,5.64,5.64,0,0,0-.69.06,12.17,12.17,0,0,1-1.9.14,14.06,14.06,0,0,1-1.48-.08,6.58,6.58,0,0,1-.86-.12Zm3.3-13.78a1.5,1.5,0,0,0-1.22.57,2.38,2.38,0,0,0-.46,1.53,5.85,5.85,0,0,0,.5,2.62,1.49,1.49,0,0,0,1.32,1,1.52,1.52,0,0,0,1.27-.62,2.64,2.64,0,0,0,.47-1.64,5.42,5.42,0,0,0-.49-2.52A1.59,1.59,0,0,0,355.07,119.08Z"/>
    <path class="cls-41" d="M377.6,116.74a8.39,8.39,0,0,1,4.87,1.44,7.66,7.66,0,0,1,2.4,2.68,7.42,7.42,0,0,1,.94,3.61,6.84,6.84,0,0,1-3,5.59,10.6,10.6,0,0,1-6.59,2.19,8.29,8.29,0,0,1-5.86-2.06,6.75,6.75,0,0,1-2.18-5.21,7.33,7.33,0,0,1,2.66-5.84A10,10,0,0,1,377.6,116.74Zm-1.21,3.5a1.31,1.31,0,0,0-1.06.49,2,2,0,0,0-.41,1.32,12.89,12.89,0,0,0,.34,2.47,19.39,19.39,0,0,0,.81,2.78,1.62,1.62,0,0,0,1.53,1.24q1.35,0,1.35-1.71a14,14,0,0,0-.34-2.89,12.37,12.37,0,0,0-.82-2.64A1.61,1.61,0,0,0,376.39,120.24Z"/>
    <path class="cls-41" d="M175.44,103.82l.37-10L157.46,94l-.24-15.56q8,0,18.22-.24V72.56H161.33l.12-9.41q0-15.32-.25-31.37l14.61-.6V26.35q-6.65.24-18.1.36l-.25-15.57q7.84,0,18-.24l-.24-5.67L191.86,3.9l.48,6.28q7.6,0,17.13-.12h0a15.3,15.3,0,0,1-15,15.89l-1.87,0v4.58l6.39-.12q10.62.84,10.62,12.67,0,12.8-1.32,28.72-9.3.36-16.41.48l.36,5.31q7.71,0,18.22-.36h0A15.44,15.44,0,0,1,195.29,93.4l-2.83,0,.12,11ZM180.15,48l13.27-.12.12-1.57c0-2.09-.68-3.22-2-3.38a35.81,35.81,0,0,0-6.87-.36l-8,.12.12,5.31Zm-3.38,13.88q11,0,16.29-.37l.24-5.06-16.53.36Zm65.53,43.32L225.4,105q.24-8.58.36-32-1.68,0-13.87.72l-.49-15.69c6-.32,10.9-.6,14.61-.84l.12-6.27a89.66,89.66,0,0,1-10.38.72l-.12-15.93q5.91-.24,10.5-.72v-6.4q-4,.36-12.31.61l-.24-15.93q7.83-.12,12.43-.61c0-2.49,0-5.1-.13-7.84l16.05-1v8q13.75-.48,22.33-.61l0,.79a15.3,15.3,0,0,1-14.77,15.87l-7.35.24v6l20.52-1,.72,15.8q-3.74.49-21.11,1.09v6.52c5.06-.24,8.48-.37,10.25-.37a34.75,34.75,0,0,1,8.45.85q3.25.84,5.19,5.19a41.47,41.47,0,0,1,1.69,13c0,2.58,0,5.31-.12,8.21a43,43,0,0,1-1.09,8.5A9.18,9.18,0,0,1,263.05,98a12.34,12.34,0,0,1-6.88,1.75h-.07a12.13,12.13,0,0,1-11.78-11.43l-.46-6.67c4,1.36,6.56,2,7.61,2,.48,0,.72-.65.72-1.93V77c0-3.06-.8-4.62-2.41-4.71-1.93,0-4.43.09-7.48.24Z"/>
    <path class="cls-41" d="M280.79,105.15l.12-11q0-19.31-1.57-36.45L296,55l.37,3.74a190.81,190.81,0,0,1,20.39-1.21q13.63.72,13.64,18.71,0,5.72-.53,13.75a15.33,15.33,0,0,1-15.13,14.32Q297.16,104.46,280.79,105.15Zm10.14-54.79V39.5q0-17-1.57-34.27l17.5-2.65.6,3.86q17-1.46,53-1.45Q375,5.95,375,23.81q0,4.19-.49,10.73a15.31,15.31,0,0,1-14.87,14.11ZM296.6,89q6.63,0,16-.61a52.73,52.73,0,0,0,.72-9.29V76.43q0-4.11-3.86-4.11a82.93,82.93,0,0,0-13,1Q296.6,84,296.6,89Zm11.22-54.67q14.35,0,48.39-1.45a33.66,33.66,0,0,0,.72-6.51V24.78c0-2.82-1.08-4.42-3.25-4.83a55.25,55.25,0,0,0-9.18-.48q-11.7,0-36.92,1.21Q307.82,28.77,307.82,34.31Zm29.57,70.6v-11q0-19.42-1.57-36.56l16.41-2.65.6,3.62q12.06-1.09,21.12-1.09,13.88.84,13.88,18.7,0,5.67-.57,13.73a15.29,15.29,0,0,1-15,14.24Q355.63,104.15,337.39,104.91Zm15.92-16.3q4.95,0,16.78-.6a52.73,52.73,0,0,0,.72-9.29V77.27c0-3-1-4.74-3.14-5.31H365.5a68,68,0,0,0-12.55,1Q353.31,83.67,353.31,88.61Z"/>
    <rect class="cls-41" width="140.79" height="140.79" rx="23.09"/>
    <path class="cls-42" d="M37.5,114.09l.32-8.88-16.27.22-.21-13.8q7.07,0,16.16-.22v-5H25L25.09,78q0-13.59-.22-27.82l13-.53V45.41q-5.89.21-16,.32l-.22-13.8q7,0,16-.22l-.22-5,14.77-1.18.42,5.56q6.75,0,15.2-.1h0A13.59,13.59,0,0,1,54.35,45.06l-1.66,0v4.06l5.67-.1q9.4.75,9.41,11.23,0,11.34-1.17,25.46-8.25.33-14.55.43l.32,4.71q6.84,0,16.15-.32h0a13.68,13.68,0,0,1-13.43,14.29l-2.51,0,.11,9.74Zm4.17-49.53,11.77-.11.1-1.39c0-1.85-.6-2.85-1.81-3a31.29,31.29,0,0,0-6.1-.32l-7.06.1.1,4.71Zm-3,12.3q9.73,0,14.45-.32l.21-4.49-14.66.32Zm58.1,38.41-15-.1q.21-7.61.32-28.36-1.5,0-12.3.65l-.43-13.91q8-.43,12.94-.75l.11-5.57a78.62,78.62,0,0,1-9.2.65l-.11-14.13q5.25-.21,9.31-.64V47.44c-2.35.22-6,.39-10.91.54L71.3,33.86q7-.12,11-.54,0-3.32-.1-7l14.23-.85v7.06q12.19-.42,19.79-.53l0,.69a13.57,13.57,0,0,1-13.1,14.07L96.66,47v5.35l18.19-.85.64,14q-3.31.44-18.72,1v5.77q6.74-.32,9.09-.32a30.66,30.66,0,0,1,7.49.75q2.9.75,4.6,4.6a36.62,36.62,0,0,1,1.5,11.56q0,3.42-.11,7.27a37.86,37.86,0,0,1-1,7.54,8.17,8.17,0,0,1-3.21,5.25,10.93,10.93,0,0,1-6.1,1.55H109a10.75,10.75,0,0,1-10.45-10.13l-.4-5.92q5.34,1.82,6.74,1.82c.43,0,.64-.57.64-1.71V90.34q0-4.07-2.14-4.17-2.57,0-6.63.21Z"/>
</svg>