<svg id="레이어_1"  data-name="레이어 1" xmlns="http://www.w3.org/2000/svg" viewBox="0 0 173.1 101.52"><defs><style>.cls-1{fill:#000;}</style></defs><path class="cls-1" d="M6.55,81.26q3.54,0,3.54,1.47a1.11,1.11,0,0,1-.18.65,2.25,2.25,0,0,1-.69.55,1.19,1.19,0,0,0-.56.72,8.47,8.47,0,0,0-.12,1.8c0,.53.1.85.29,1a1,1,0,0,0,.52.14c.23,0,.77,0,1.63,0a5.12,5.12,0,0,0,1.46-.12c.19-.08.28-.29.28-.63a10.78,10.78,0,0,0-.14-2.09,1.19,1.19,0,0,0-.53-.81,2.42,2.42,0,0,1-.66-.48.8.8,0,0,1-.16-.53,1.22,1.22,0,0,1,.35-.84,1.8,1.8,0,0,1,.92-.52,13,13,0,0,1,3-.29,9.07,9.07,0,0,1,3.09.39c.66.25,1,.64,1,1.18a1.09,1.09,0,0,1-.7,1,1.36,1.36,0,0,0-.58.39,1.84,1.84,0,0,0-.22.7c0,.19-.07,1-.11,2.52s-.07,2.68-.07,3.56A15.07,15.07,0,0,0,18,94a1,1,0,0,0,.21.46,4.24,4.24,0,0,0,.71.45.77.77,0,0,1,.43.73,1.33,1.33,0,0,1-1,1.26,10.29,10.29,0,0,1-3.34.39,8.23,8.23,0,0,1-3-.4,1.19,1.19,0,0,1-.88-1.12,1.14,1.14,0,0,1,.67-1,1.26,1.26,0,0,0,.45-.36,2.3,2.3,0,0,0,.24-.67,11.93,11.93,0,0,0,.2-2.34c0-.48-.07-.78-.21-.89a2.17,2.17,0,0,0-1.1-.17,8.51,8.51,0,0,0-2.59.23c-.15.06-.25.24-.28.53a10.23,10.23,0,0,0-.07,1.34,3.64,3.64,0,0,0,.36,1.87,2.24,2.24,0,0,0,.59.46,1,1,0,0,1,.48.9c0,.53-.37.94-1.1,1.22a9.26,9.26,0,0,1-3.15.42,10,10,0,0,1-3.05-.39,1.8,1.8,0,0,1-.8-.48,1,1,0,0,1-.29-.69.86.86,0,0,1,.18-.58,2.93,2.93,0,0,1,.8-.52,1,1,0,0,0,.45-.41,3,3,0,0,0,.2-.84,29.34,29.34,0,0,0,.17-3.48c0-.27,0-.58,0-.94,0-1.82,0-2.86,0-3.12a3.09,3.09,0,0,0-.16-1.29,2.24,2.24,0,0,0-.93-.69.76.76,0,0,1-.5-.71c0-.77.74-1.3,2.23-1.6A13.71,13.71,0,0,1,6.55,81.26Z"/><path class="cls-1" d="M29.12,85.7a5.55,5.55,0,0,1,3.36,1,2.9,2.9,0,0,1,1,1.22,4.87,4.87,0,0,1,.29,1.89l0,1.7A6.38,6.38,0,0,0,34,93.79a.73.73,0,0,0,.24.32,1.28,1.28,0,0,0,.48.12.42.42,0,0,1,.36.48,2,2,0,0,1-.44,1.14,3.75,3.75,0,0,1-1.13,1,3.5,3.5,0,0,1-1.78.5,2.33,2.33,0,0,1-1.89-.82c-.16-.2-.31-.3-.44-.3a1.16,1.16,0,0,0-.61.29,4.25,4.25,0,0,1-2.58.83,4.13,4.13,0,0,1-2.41-.64,2.9,2.9,0,0,1-.95-1.1,3,3,0,0,1-.35-1.41,2.78,2.78,0,0,1,.95-2.09,6.23,6.23,0,0,1,4.46-1.45,1.61,1.61,0,0,0,.83-.13c.11-.08.17-.29.17-.6a4.58,4.58,0,0,0-.25-1.75.85.85,0,0,0-.82-.54,1,1,0,0,0-.61.2,3.81,3.81,0,0,0-.66.75A2.74,2.74,0,0,1,24.46,90a1.29,1.29,0,0,1-.91-.33,1.15,1.15,0,0,1-.35-.86,1.78,1.78,0,0,1,.44-1.1,3.75,3.75,0,0,1,1.19-.95A9,9,0,0,1,29.12,85.7Zm-.76,6.58a1.16,1.16,0,0,0-.87.41,1.39,1.39,0,0,0-.37,1,1.44,1.44,0,0,0,.26.88.86.86,0,0,0,.7.33c.6,0,.91-.51.91-1.53a1.89,1.89,0,0,0-.13-.84A.56.56,0,0,0,28.36,92.28Z"/><path class="cls-1" d="M52,89.9l.16,4a1.58,1.58,0,0,0,.14.68,5.77,5.77,0,0,0,.7.83.73.73,0,0,1,.17.51c0,.5-.3.85-.9,1a11.56,11.56,0,0,1-3.2.3A6.37,6.37,0,0,1,46.8,97a1,1,0,0,1-.67-.92.59.59,0,0,1,.07-.34,4.54,4.54,0,0,1,.45-.53c.3-.32.46-1.38.46-3.18a5.6,5.6,0,0,0-.37-2.32,1.33,1.33,0,0,0-2.14-.11,4,4,0,0,0-.28,1.77v2.25a3.13,3.13,0,0,0,.09.92,4.93,4.93,0,0,0,.56,1,.88.88,0,0,1,.12.46q0,.67-.93,1a9.77,9.77,0,0,1-2.91.32c-2.11,0-3.16-.44-3.16-1.31a.67.67,0,0,1,.1-.41,2,2,0,0,1,.46-.41.91.91,0,0,0,.37-.49,7.39,7.39,0,0,0,.15-1.37c0-.86.08-1.77.08-2.72a2.83,2.83,0,0,0-.12-1,1.87,1.87,0,0,0-.69-.59.91.91,0,0,1-.49-.75.9.9,0,0,1,.4-.75A7.49,7.49,0,0,1,40,86.71q1.09-.39,2.1-.66a7.15,7.15,0,0,1,1.39-.26.72.72,0,0,1,.57.25.81.81,0,0,1,.24.59s0,.12,0,.28a1.15,1.15,0,0,0,0,.16c0,.37.16.55.46.55s.37-.14.58-.43a3.24,3.24,0,0,1,2.84-1.41,4.06,4.06,0,0,1,2.46.75,2.9,2.9,0,0,1,1,1.25A7.16,7.16,0,0,1,52,89.9Z"/><path class="cls-1" d="M61.48,85.77a2.06,2.06,0,0,1,.87.11c.11.08.17.28.17.6s.09.42.27.42a2.73,2.73,0,0,0,.76-.43,4.55,4.55,0,0,1,1.25-.55,4.8,4.8,0,0,1,1.37-.22,3.79,3.79,0,0,1,2.58,1,5.11,5.11,0,0,1,1.34,1.92,6.71,6.71,0,0,1,.5,2.56,6.26,6.26,0,0,1-1.93,4.72,4.74,4.74,0,0,1-3.39,1.44,4.79,4.79,0,0,1-2-.46.86.86,0,0,0-.33-.09c-.23,0-.34.23-.34.68a1.44,1.44,0,0,0,.6,1.3,4,4,0,0,1,.67.51.67.67,0,0,1,.11.43,1.16,1.16,0,0,1-.77,1.06,5.1,5.1,0,0,1-2.14.36,9,9,0,0,1-4.32-1c-.63-.34-.95-.75-.95-1.24a.85.85,0,0,1,.14-.52,1.62,1.62,0,0,1,.56-.37,1.27,1.27,0,0,0,.72-1c.08-.48.15-1.85.2-4.11a20.13,20.13,0,0,0-.21-3.14.22.22,0,0,0-.13-.15l-.56-.13a1,1,0,0,1-.59-.33,1,1,0,0,1-.23-.64,1.14,1.14,0,0,1,.32-.8,3.2,3.2,0,0,1,1-.68A11.92,11.92,0,0,1,61.48,85.77Zm1.13,4.29-.17,3.13c0,.13,0,.25,0,.37a.65.65,0,0,0,.31.57,1.32,1.32,0,0,0,.81.22c1,0,1.57-.86,1.57-2.58a3.36,3.36,0,0,0-.66-2.36,1.31,1.31,0,0,0-1-.42C63,89,62.66,89.35,62.61,90.06Z"/><path class="cls-1" d="M80.06,86.49V93.1a3.59,3.59,0,0,0,.14,1.15,1.62,1.62,0,0,0,.58.67,2.06,2.06,0,0,1,.47.42.79.79,0,0,1,.12.45q0,1.47-3.72,1.47a12.61,12.61,0,0,1-3.17-.32,1.36,1.36,0,0,1-.65-.4,1,1,0,0,1-.24-.64.81.81,0,0,1,.12-.48,3.48,3.48,0,0,1,.64-.55,1.43,1.43,0,0,0,.5-.85A7.72,7.72,0,0,0,75,92.26c0-.25,0-.72,0-1.41s-.06-1.08-.08-1.2a.91.91,0,0,0-.63-.71,1,1,0,0,1-.71-.91c0-.48.31-.84.92-1.07a20.8,20.8,0,0,1,2.73-.83,10.45,10.45,0,0,1,2.25-.34C79.85,85.79,80.06,86,80.06,86.49Zm-2.25-5a3,3,0,0,1,1.57.37,1.15,1.15,0,0,1,.58,1,1.56,1.56,0,0,1-.88,1.38,6.52,6.52,0,0,1-3.35.81,2.3,2.3,0,0,1-1.32-.32,1.27,1.27,0,0,1-.66-1.13c0-.66.47-1.17,1.4-1.54A7.12,7.12,0,0,1,77.81,81.51Z"/><path class="cls-1" d="M98.16,89.9l.16,4a1.58,1.58,0,0,0,.14.68,5.77,5.77,0,0,0,.7.83.73.73,0,0,1,.17.51c0,.5-.3.85-.9,1a11.6,11.6,0,0,1-3.21.3A6.34,6.34,0,0,1,93,97a1,1,0,0,1-.67-.92.71.71,0,0,1,.06-.34c0-.07.2-.25.46-.53s.45-1.38.45-3.18A5.63,5.63,0,0,0,93,89.7a1.33,1.33,0,0,0-2.14-.11,3.82,3.82,0,0,0-.28,1.77v2.25a3.66,3.66,0,0,0,.08.92,5.86,5.86,0,0,0,.57,1,.88.88,0,0,1,.12.46q0,.67-.93,1a9.77,9.77,0,0,1-2.91.32c-2.11,0-3.16-.44-3.16-1.31a.76.76,0,0,1,.09-.41,2.27,2.27,0,0,1,.46-.41.88.88,0,0,0,.38-.49,9.87,9.87,0,0,0,.15-1.37c.05-.86.08-1.77.08-2.72a2.83,2.83,0,0,0-.12-1,1.87,1.87,0,0,0-.69-.59.89.89,0,0,1-.49-.75.87.87,0,0,1,.4-.75,7.26,7.26,0,0,1,1.64-.73q1.08-.39,2.1-.66a7,7,0,0,1,1.39-.26.75.75,0,0,1,.57.25.8.8,0,0,1,.23.59s0,.12,0,.28a1,1,0,0,0,0,.16c0,.37.15.55.45.55s.38-.14.58-.43a3.26,3.26,0,0,1,2.85-1.41,4,4,0,0,1,2.45.75,2.83,2.83,0,0,1,1,1.25A7.11,7.11,0,0,1,98.16,89.9Z"/><path class="cls-1" d="M122.55,85.09a.61.61,0,0,1,.5.33,1.34,1.34,0,0,1,.21.75,2.43,2.43,0,0,1-.28,1.06,3.09,3.09,0,0,1-.7,1q-.27.22-.27.36s0,.11,0,.27a3.46,3.46,0,0,1,0,.43,3.11,3.11,0,0,1-.91,2.28,5.51,5.51,0,0,1-2.11,1.27,8.53,8.53,0,0,1-2.83.46,6,6,0,0,1-.74,0l-.46,0a.53.53,0,0,0-.6.6.68.68,0,0,0,.39.61,2.16,2.16,0,0,0,1.07.22,9.55,9.55,0,0,0,1.34-.13,22.79,22.79,0,0,1,2.75-.26,4,4,0,0,1,2.08.45,2.52,2.52,0,0,1,.94,1,2.65,2.65,0,0,1,.34,1.32,3.61,3.61,0,0,1-.84,2.23,5.87,5.87,0,0,1-2.94,1.88,11.77,11.77,0,0,1-3.53.48,9.38,9.38,0,0,1-4.09-.77,3.14,3.14,0,0,1-1.16-1,2,2,0,0,1-.43-1.22,1.48,1.48,0,0,1,.24-.82,1.45,1.45,0,0,1,.62-.54c.23-.09.34-.19.34-.29s-.09-.21-.28-.37a2.08,2.08,0,0,1-.91-1.58,1.88,1.88,0,0,1,.44-1.12,2.93,2.93,0,0,1,1.08-.9c.19-.09.28-.18.28-.27s-.12-.27-.35-.48a3.33,3.33,0,0,1-1.17-2.52,2.77,2.77,0,0,1,.42-1.46A3.69,3.69,0,0,1,112.2,87a7.26,7.26,0,0,1,4.06-1.2,10,10,0,0,1,2,.23,8.61,8.61,0,0,0,1.42.21,4,4,0,0,0,2.47-1A.8.8,0,0,1,122.55,85.09Zm-8.65,12.7c-.19,0-.29.11-.29.33a1.25,1.25,0,0,0,.73,1.09,3.76,3.76,0,0,0,1.89.41,4.14,4.14,0,0,0,1.74-.29.92.92,0,0,0,.63-.83.65.65,0,0,0-.23-.49.92.92,0,0,0-.6-.19,4.12,4.12,0,0,0-.52,0,8.78,8.78,0,0,1-1.42.1,9.86,9.86,0,0,1-1.11,0l-.65-.09Zm2.48-10.34a1.11,1.11,0,0,0-.92.43,1.79,1.79,0,0,0-.35,1.15,4.32,4.32,0,0,0,.38,2,1.1,1.1,0,0,0,1.94.28,1.92,1.92,0,0,0,.36-1.23,4.06,4.06,0,0,0-.37-1.89A1.2,1.2,0,0,0,116.38,87.45Z"/><path class="cls-1" d="M133.29,85.7a6.28,6.28,0,0,1,3.65,1.08,5.76,5.76,0,0,1,1.81,2,5.58,5.58,0,0,1,.7,2.7,5.13,5.13,0,0,1-2.26,4.2,7.93,7.93,0,0,1-4.95,1.65,6.27,6.27,0,0,1-4.4-1.55,5.05,5.05,0,0,1-1.63-3.91,5.49,5.49,0,0,1,2-4.39A7.56,7.56,0,0,1,133.29,85.7Zm-.91,2.62a1,1,0,0,0-.8.37,1.54,1.54,0,0,0-.3,1,9.19,9.19,0,0,0,.25,1.85,14.6,14.6,0,0,0,.61,2.09,1.22,1.22,0,0,0,1.15.93c.67,0,1-.43,1-1.28a10.63,10.63,0,0,0-.25-2.17,9.12,9.12,0,0,0-.62-2A1.21,1.21,0,0,0,132.38,88.32Z"/><path class="cls-1" d="M154.68,85.09a.6.6,0,0,1,.5.33,1.27,1.27,0,0,1,.22.75,2.46,2.46,0,0,1-.29,1.06,2.94,2.94,0,0,1-.7,1c-.17.15-.26.27-.26.36s0,.11,0,.27a3.62,3.62,0,0,1,0,.43,3.15,3.15,0,0,1-.91,2.28,5.59,5.59,0,0,1-2.11,1.27,8.59,8.59,0,0,1-2.84.46,6,6,0,0,1-.74,0l-.45,0a.54.54,0,0,0-.61.6.69.69,0,0,0,.4.61,2.12,2.12,0,0,0,1.06.22,9.55,9.55,0,0,0,1.34-.13,22.79,22.79,0,0,1,2.75-.26,4,4,0,0,1,2.08.45,2.39,2.39,0,0,1,.94,1,2.66,2.66,0,0,1,.35,1.32,3.61,3.61,0,0,1-.84,2.23,5.86,5.86,0,0,1-2.95,1.88,11.71,11.71,0,0,1-3.52.48,9.43,9.43,0,0,1-4.1-.77,3,3,0,0,1-1.15-1,2,2,0,0,1-.44-1.22,1.42,1.42,0,0,1,.25-.82,1.4,1.4,0,0,1,.62-.54c.23-.09.34-.19.34-.29s-.1-.21-.29-.37a2.12,2.12,0,0,1-.91-1.58,1.88,1.88,0,0,1,.44-1.12A3,3,0,0,1,144,93q.27-.14.27-.27c0-.11-.11-.27-.34-.48a3.33,3.33,0,0,1-1.17-2.52,2.85,2.85,0,0,1,.41-1.46A3.73,3.73,0,0,1,144.34,87a7.24,7.24,0,0,1,4.06-1.2,9.79,9.79,0,0,1,2,.23,8.68,8.68,0,0,0,1.43.21,4,4,0,0,0,2.46-1A.8.8,0,0,1,154.68,85.09ZM146,97.79c-.19,0-.28.11-.28.33a1.23,1.23,0,0,0,.73,1.09,3.72,3.72,0,0,0,1.88.41,4.19,4.19,0,0,0,1.75-.29.92.92,0,0,0,.63-.83.63.63,0,0,0-.24-.49.91.91,0,0,0-.59-.19,4,4,0,0,0-.52,0A8.91,8.91,0,0,1,148,98a10.08,10.08,0,0,1-1.11,0l-.65-.09Zm2.48-10.34a1.1,1.1,0,0,0-.91.43,1.74,1.74,0,0,0-.35,1.15,4.33,4.33,0,0,0,.37,2,1.11,1.11,0,0,0,1,.74,1.15,1.15,0,0,0,1-.46,2,2,0,0,0,.35-1.23,3.94,3.94,0,0,0-.37-1.89A1.19,1.19,0,0,0,148.51,87.45Z"/><path class="cls-1" d="M165.42,85.7a6.26,6.26,0,0,1,3.65,1.08,5.66,5.66,0,0,1,1.81,2,5.59,5.59,0,0,1,.71,2.7,5.14,5.14,0,0,1-2.27,4.2,7.93,7.93,0,0,1-4.94,1.65,6.25,6.25,0,0,1-4.4-1.55,5.06,5.06,0,0,1-1.64-3.91,5.52,5.52,0,0,1,2-4.39A7.58,7.58,0,0,1,165.42,85.7Zm-.91,2.62a1,1,0,0,0-.8.37,1.54,1.54,0,0,0-.3,1,9.34,9.34,0,0,0,.26,1.85,13.42,13.42,0,0,0,.61,2.09,1.2,1.2,0,0,0,1.14.93c.68,0,1-.43,1-1.28a10.7,10.7,0,0,0-.26-2.17,9.12,9.12,0,0,0-.62-2A1.21,1.21,0,0,0,164.51,88.32Z"/><path class="cls-1" d="M13.68,76,14,68.48.18,68.66,0,57c4,0,8.54-.06,13.68-.18V52.53H3.08l.09-7.06Q3.17,34,3,21.92l11-.45V17.84c-3.32.12-7.85.22-13.59.27L.18,6.43c3.93,0,8.42-.06,13.5-.18L13.5,2,26,1l.36,4.71q5.7,0,12.86-.09h0A11.5,11.5,0,0,1,28,17.55l-1.41,0V21l4.8-.09q8,.64,8,9.51,0,9.62-1,21.56-7,.27-12.31.36l.27,4q5.79,0,13.68-.27h0a11.59,11.59,0,0,1-11.38,12.1l-2.12,0,.09,8.24Zm3.53-41.93,10-.09.09-1.18c0-1.57-.51-2.42-1.54-2.54A26.92,26.92,0,0,0,20.56,30l-6,.09.09,4ZM14.67,44.47q8.25,0,12.23-.27l.18-3.8-12.41.27ZM63.86,77,51.18,76.9q.18-6.44.27-24-1.28,0-10.42.54l-.36-11.77c4.53-.24,8.18-.46,11-.64l.09-4.71a67.51,67.51,0,0,1-7.79.55l-.09-12q4.44-.18,7.88-.54v-4.8q-3,.27-9.24.45l-.18-12c3.93-.06,7-.21,9.33-.45,0-1.87,0-3.83-.09-5.89L63.59,1V7q10.32-.36,16.75-.45l0,.59A11.48,11.48,0,0,1,69.28,19l-5.51.18v4.53L79.17,23l.54,11.86q-2.8.38-15.85.82v4.89q5.7-.27,7.7-.27a26.18,26.18,0,0,1,6.34.63q2.44.63,3.89,3.9a30.8,30.8,0,0,1,1.27,9.78q0,2.9-.09,6.16a31.57,31.57,0,0,1-.82,6.38,6.84,6.84,0,0,1-2.71,4.44,9.2,9.2,0,0,1-5.17,1.32h0a9.1,9.1,0,0,1-8.84-8.58l-.34-5a25.59,25.59,0,0,0,5.7,1.54c.36,0,.55-.48.55-1.45V55.89c0-2.3-.61-3.47-1.82-3.54-1.45,0-3.32.07-5.61.18Z"/><path class="cls-1" d="M92.75,77l.09-8.24q0-14.49-1.17-27.36l12.5-2.08.27,2.81a145.34,145.34,0,0,1,15.31-.91q10.23.54,10.23,14,0,4.29-.39,10.33a11.52,11.52,0,0,1-11.36,10.75Q105,76.47,92.75,77Zm7.61-41.12V27.72q0-12.78-1.18-25.73l13.14-2,.45,2.9q12.78-1.09,39.77-1.09,11,.73,11,14.13c0,2.09-.13,4.78-.38,8A11.47,11.47,0,0,1,152,34.58Zm4.26,29c3.32,0,7.34-.14,12-.45a39.56,39.56,0,0,0,.54-7v-2c0-2-1-3.08-2.9-3.08a62.35,62.35,0,0,0-9.78.73C104.59,58.45,104.62,62.38,104.62,64.85Zm8.42-41q10.78,0,36.33-1.09a25.31,25.31,0,0,0,.54-4.89V16.67c0-2.12-.82-3.32-2.45-3.63a41.32,41.32,0,0,0-6.88-.36q-8.79,0-27.72.91Q113,19.65,113,23.82Zm22.2,53V68.57q0-14.58-1.18-27.45l12.32-2,.45,2.72q9.06-.83,15.85-.82,10.41.64,10.42,14,0,4.26-.43,10.3a11.48,11.48,0,0,1-11.26,10.7Q148.93,76.24,135.24,76.81Zm11.95-12.23q3.72,0,12.59-.45a39.6,39.6,0,0,0,.55-7V56.07c0-2.24-.79-3.56-2.36-4h-1.63a50.87,50.87,0,0,0-9.42.73Q147.19,60.86,147.19,64.58Z"/></svg>