<svg xmlns="http://www.w3.org/2000/svg" viewBox="0 0 439 162.7">
    <defs></defs>
    <g>
        <g>
            <path class="cls-1" d="M104.45,49.15,87.1,75.61h56.76L141.73,91.2h-29.2l24.61,65.12H102.85L78.41,91.2H76.93L34.28,156.32H0L42.65,91.2H13.94l2.14-15.59H52.82L72.67,45.43l-3.61-4.1h31.17A5.05,5.05,0,0,1,104.45,49.15Z"/>
            <path class="cls-1" d="M239.36,48.68l-9.79,16.9h57.68l-2.08,15.17H220.79l-3.52,6.07H276.7l-3.83,27.32L249.7,131.08l30.84,25.24H247.79L232.13,143.7l-17.41,12.62H182l34.66-25.08L199.7,117.5l-22.37,38.82H147l43.45-75.57H160.72l2.07-15.17,7.83-13.9L167,47.36h25a4.92,4.92,0,0,1,4.29,7.33l-6.11,10.89h9.11l11.66-20.13-3.67-4.16H235.1A4.92,4.92,0,0,1,239.36,48.68ZM210.24,99l-2.55,4.63h15.17l-.63,4.79,12,9.91L248,108.39,249.23,99Zm74.61-38H257.53l-3.67-16.61h23.37a4.92,4.92,0,0,1,4.8,3.86Z"/>
            <path class="cls-1" d="M33.45,19a9.85,9.85,0,0,0,1.8,0l.89-.09.86-.2a4.84,4.84,0,0,0,.84-.27l.41-.16.21-.09.1,0h0l.1,0,0,0,.67-.42a5.32,5.32,0,0,0,.72-.6,3.12,3.12,0,0,0,.62-.7,3.68,3.68,0,0,0,.48-.75c.12-.27.26-.54.36-.81l.21-.86a5.29,5.29,0,0,0,0-1.73,5.56,5.56,0,0,0-.51-1.64,3.33,3.33,0,0,0-1.12-1.25,3.1,3.1,0,0,0-1.56-.53,3.34,3.34,0,0,0-1.57.3A3.11,3.11,0,0,1,38.58,9a2.7,2.7,0,0,1,1.33.66,2.74,2.74,0,0,1,.82,1.2A4.86,4.86,0,0,1,41,12.28a4.18,4.18,0,0,1-.19,1.41l-.26.66a5.87,5.87,0,0,1-.37.59,2.48,2.48,0,0,1-.44.53,2.2,2.2,0,0,1-.5.43,3.48,3.48,0,0,1-.53.35l-.73.32,0,0h0l.07,0h0l-.09,0-.17,0-.34.09a3.31,3.31,0,0,1-.7.12l-.69.07-.7,0a7.59,7.59,0,0,1-1.35-.21l-.5-.17a8.8,8.8,0,0,1-.72-1.14,1.26,1.26,0,0,1-.13-.26A8.82,8.82,0,0,1,32,13.72,9.25,9.25,0,0,1,47.22,4.34,6.77,6.77,0,0,1,60,4.8a6.25,6.25,0,0,1,.25,1.26,10.66,10.66,0,0,1,2.81-1.32,10.82,10.82,0,0,1,14,10.43c0,.1-.07.22-.11.37a4.65,4.65,0,0,1-.17.49c-.07.16-.14.33-.21.53s-.22.42-.34.65a9.18,9.18,0,0,1-1,1.46,8.94,8.94,0,0,1-1.59,1.44,9.09,9.09,0,0,1-2.14,1.15,10.23,10.23,0,0,1-2.57.57,9.92,9.92,0,0,1-2.76-.2H66l.06,0h0l-.18-.07-.36-.12c-.23-.09-.5-.16-.7-.26a6.85,6.85,0,0,1-1.06-.69,4.69,4.69,0,0,1-.93-1,4.11,4.11,0,0,1-.39-.54l-.3-.59a5.86,5.86,0,0,1-.54-2.47,11.61,11.61,0,0,1,.12-1.2l0-.15s0-.07,0-.11l.1-.28a1.71,1.71,0,0,1,.22-.51,3.85,3.85,0,0,1,1.33-1.41,4.34,4.34,0,0,1,1.47-.5l.59,0,.43,0,.37.05-.36-.08-.43-.1-.61,0a4.45,4.45,0,0,0-1.6.37,4.19,4.19,0,0,0-1.66,1.44,2.22,2.22,0,0,0-.31.53l-.13.27c0,.06,0,.06-.07.17l0,.16a10.62,10.62,0,0,0-.28,1.32,7.06,7.06,0,0,0,.33,2.92c.09.24.18.49.28.74a6.75,6.75,0,0,0,.39.69,6,6,0,0,0,1,1.29,8,8,0,0,0,1.38,1.09c.24.14.47.23.7.35l.35.16.17.08h0l.11,0h0l.1,0a11.93,11.93,0,0,0,3.25.58A11.52,11.52,0,0,0,75,22.35a11.53,11.53,0,0,0,3.11-2.55,8.05,8.05,0,0,1,4,4.8s7.43-4.84,14.73,3.48c6.1,7,7.86,11.64,8,11.93-.22-.29-4.7-5.72-17.18-3.33-14.35,2.73-18-3.1-18-3.1a11.39,11.39,0,0,1-18.92,3.09l.06-.07c.47-.75.91-1.45,1.38-2.27.16-.39.33-.68.48-1.15a9.37,9.37,0,0,0,.36-1.3,9.75,9.75,0,0,0-.34-5.12A9.54,9.54,0,0,0,50,22.69a7.4,7.4,0,0,0-4.08-2,5.88,5.88,0,0,0-3.9,1,5.45,5.45,0,0,0-2.07,2.63,3.44,3.44,0,0,0,1.2,3.81l.49.32-.46-.35a3.24,3.24,0,0,1-.92-1.29,3.11,3.11,0,0,1,0-2.37,5,5,0,0,1,2.07-2.29,5.18,5.18,0,0,1,3.49-.68,8.79,8.79,0,0,1,.91.24c.29.15.69.31.92.45a9.06,9.06,0,0,1,1.63,1.29,8.39,8.39,0,0,1,2.13,3.69,8.22,8.22,0,0,1,0,4.32,8.57,8.57,0,0,1-.85,2c-.4.58-.81,1.15-1.21,1.72l-.81.85-.41.42-.18.19a12,12,0,0,1-12.13.51l-.15-.08A11.7,11.7,0,0,1,33,18.87Z"/>
            <text class="cls-2" transform="translate(319.54 156.65)">Daebak Ma<tspan class="cls-3" x="104.2" y="0">r</tspan>
                <tspan x="112.13" y="0">t</tspan>
            </text>
            <path class="cls-1" d="M362.57,45.33l-7,10.61h22.77l-.85,6.26H365.81l9.87,26.13H361.93L352.12,62.2h-.59L334.42,88.33H320.66L337.77,62.2H326.25l.86-6.26h14.74l8-12.11-1.45-1.64h12.5A2,2,0,0,1,362.57,45.33Z"/>
            <path class="cls-1" d="M419.27,44l-4,7H439l-.86,6.25H411.62l-1.45,2.51h24.49L433.08,71l-9.55,7,12.71,10.4h-13.5l-6.45-5.2-7.17,5.2H395.63L409.91,78l-7-5.66-9.21,16H381.21l17.9-31.14H386.87l.86-6.25L391,45.22l-1.51-1.78h10.29a2,2,0,0,1,1.77,3L399,50.94h3.75l4.81-8.29L406,40.94h11.49A2,2,0,0,1,419.27,44Zm-12,20.72-1.06,1.91h6.26l-.27,2,4.94,4.08,5.66-4.08.53-3.88ZM438,49H426.76l-1.52-6.84h9.63a2,2,0,0,1,2,1.59Z"/>
            <path class="cls-1" d="M329.15,110.07l1.51-10.93h-4.21l.86-6H344a2,2,0,0,1,2,2.31l-.53,3.74h-3.81l-1.52,10.93h3.62l-.92,6.65h-3.69l-1.71,12.17,4.87-.92-.92,6.39-20.73,3.81.85-6.25,4.68-.85,2-14.35h-4.34l.92-6.65Zm36,13.1-.85,6.18H344.88l.86-6.18ZM345,119.09l5.27-17.38h10.2l-3.09,11.12h5.06l4.81-13.55h-18.1L350,93h25.92a2,2,0,0,1,2,2.3l-.55,4-4.8,13.55h5.27l-3.1,22a4.79,4.79,0,0,1-1.71,3.12,5,5,0,0,1-3.36,1.22H347.84l5.86-6.38H365l2-13.69Z"/>
            <path class="cls-1" d="M393.06,101.84h2l1.45-10h6a2,2,0,0,1,2,2.32l-1.11,7.68H405l-.86,6.25H402.6L401,119.68l2.83-.33-.86,6.25-2.89.33-1.85,13.3h-9.28l1.71-12.18-9.41,1,.92-6.25,9.35-1,1.84-12.71h-1.71l-1.45,6.26h-7l3.95-17-1.32-1.71H392a2,2,0,0,1,2,2.48Zm28.63,14.48.53-3.55H406l.85-5.93H417l.66-4.6h-8.89l.86-5.93h8.82l.39-2.5-2.37-2h12.66a2,2,0,0,1,2,2.32l-.32,2.15h8l-.85,5.93h-8l-.66,4.6h9.61l-.86,5.93h-4.6l-.53,3.55h3.68l-.79,5.73h-3.68l-1.78,12.64a4.6,4.6,0,0,1-1.84,3.12,5.69,5.69,0,0,1-3.56,1.22H413.2l6.19-6.12,1.51-10.86H405.76l.79-5.73ZM417.28,133h-8.82l-2.7-8.55h8.82Z"/>
            <line class="cls-4" x1="300.91" y1="41.21" x2="300.91" y2="156.26"/>
        </g>
    </g>
</svg>