<?xml version="1.0" encoding="utf-8"?>
<!-- Generator: Adobe Illustrator 25.2.1, SVG Export Plug-In . SVG Version: 6.00 Build 0)  -->
<svg version="1.1" id="레이어_1" xmlns="http://www.w3.org/2000/svg" xmlns:xlink="http://www.w3.org/1999/xlink" x="0px"
	 y="0px" viewBox="0 0 595.3 841.9" style="enable-background:new 0 0 595.3 841.9;" xml:space="preserve">
<style type="text/css">
	.st0{clip-path:url(#SVGID_2_);}
</style>
<g>
	<g>
		<defs>
			<rect id="SVGID_1_" x="120" y="244.9" width="355" height="354"/>
		</defs>
		<clipPath id="SVGID_2_">
			<use xlink:href="#SVGID_1_"  style="overflow:visible;"/>
		</clipPath>
		<path class="st0" d="M471.4,360.5l-113-113c-3.6-3.4-9.1-3.4-12.7,0l-28.1,28.1c-1.7,1.7-2.7,4-2.7,6.4c0,2.4,1,4.7,2.7,6.4
			l11.5,11.4c-43.4,22.4-92,33-140.9,30.7c-4.3-0.2-8.1,2.8-9.1,7l-58.9,250.4c-0.7,3,0.3,6.2,2.4,8.4c2.2,2.2,5.3,3.1,8.4,2.4
			l250.4-58.9c4.2-1,7.1-4.8,7-9.1c-2.3-48.8,8.3-97.4,30.7-140.9l11.4,11.5c1.7,1.7,4,2.6,6.4,2.6c2.4,0,4.7-1,6.4-2.6l28.1-28.1
			c1.7-1.7,2.7-4,2.7-6.4C474,364.5,473.1,362.2,471.4,360.5L471.4,360.5z M370.3,523.9l-212.5,50l92.7-92.7
			c13.2,7.6,29.8,5.5,40.6-5.3c9.2-9.1,12.4-22.6,8.3-34.9c-4.1-12.3-14.8-21.1-27.6-22.9c-12.8-1.8-25.5,3.9-32.7,14.6
			c-7.2,10.7-7.8,24.6-1.4,35.8L145,561.2l50-212.5c51.4,1.3,102.3-10.9,147.4-35.6l63.6,63.6C381.3,421.7,369,472.5,370.3,523.9
			L370.3,523.9z M370.3,523.9"/>
	</g>
</g>
</svg>
