<?xml version="1.0" encoding="utf-8"?>
<!-- Generator: Adobe Illustrator 25.2.1, SVG Export Plug-In . SVG Version: 6.00 Build 0)  -->
<svg version="1.1" id="레이어_1" xmlns="http://www.w3.org/2000/svg" xmlns:xlink="http://www.w3.org/1999/xlink" x="0px"
	 y="0px" viewBox="0 0 595.3 841.9" style="enable-background:new 0 0 595.3 841.9;" xml:space="preserve">
<g>
	<path d="M316.3,365.9L297,326.8l-19.3,39.1c-1.6,3.3-4.8,5.6-8.5,6.2l-43.1,6.3l31.2,30.4c2.7,2.6,3.9,6.3,3.2,10l-7.4,42.9
		l38.6-20.3c3.3-1.7,7.2-1.7,10.5,0l38.6,20.3l-7.4-42.9c-0.6-3.6,0.6-7.4,3.2-10l31.2-30.4l-43.1-6.3
		C321.1,371.5,317.9,369.2,316.3,365.9L316.3,365.9z M316.3,365.9"/>
	<path d="M447.6,229.9H146.4c-22.8,0-41.4,18.6-41.4,41.4v253.1c0,22.8,18.6,41.4,41.4,41.4h97.8l44.9,44.9c2.1,2.1,5,3.3,8,3.3
		c3,0,5.8-1.2,8-3.3l44.9-44.9h97.8c22.8,0,41.4-18.6,41.4-41.4V271.3C489,248.4,470.4,229.9,447.6,229.9L447.6,229.9z M399.9,378.5
		l-43.3,42.2l10.1,59c0.2,0.8,0.3,1.7,0.3,2.5c0,6.2-5,11.2-11.2,11.2c0,0,0,0,0,0c-1.8,0-3.6-0.4-5.2-1.3L297,464l-53.5,28.1
		c-3.8,2-8.4,1.7-11.8-0.9c-3.5-2.5-5.2-6.8-4.5-11l10.2-59.6l-43.3-42.2c-3.1-3-4.2-7.5-2.8-11.5c1.3-4.1,4.8-7,9.1-7.7l59.8-8.7
		l26.8-54.2c1.9-3.8,5.8-6.3,10.1-6.3c4.3,0,8.2,2.4,10.1,6.3l26.8,54.2l59.8,8.7c4.2,0.6,7.8,3.6,9.1,7.7
		C404,371,402.9,375.5,399.9,378.5L399.9,378.5z M399.9,378.5"/>
</g>
</svg>
