<?xml version="1.0" encoding="utf-8"?>
<!-- Generator: Adobe Illustrator 25.2.1, SVG Export Plug-In . SVG Version: 6.00 Build 0)  -->
<svg version="1.1" id="레이어_1" xmlns="http://www.w3.org/2000/svg" xmlns:xlink="http://www.w3.org/1999/xlink" x="0px"
	 y="0px" viewBox="0 0 807 1109" style="enable-background:new 0 0 807 1109;" xml:space="preserve">
<g>
	<path d="M561.2,420H244.8c-18.6,0-33.8,15.1-33.8,33.8v202.5c0,18.6,15.2,33.8,33.8,33.8h316.5c18.6,0,33.8-15.1,33.8-33.8V453.8
		C595,435.1,579.8,420,561.2,420L561.2,420z M556.1,442.5C545.2,453.4,417,582,411.7,587.3c-4.4,4.4-13,4.4-17.4,0L249.9,442.5
		H556.1z M233.5,652.1V457.9l96.8,97.1L233.5,652.1z M249.9,667.5l96.2-96.6l32.2,32.3c13.2,13.2,36.1,13.2,49.3,0l32.2-32.3
		l96.3,96.6H249.9z M572.5,652.1L475.7,555l96.8-97.1V652.1z M572.5,652.1"/>
</g>
</svg>
