<?xml version="1.0" encoding="utf-8"?>
<!-- Generator: Adobe Illustrator 25.2.1, SVG Export Plug-In . SVG Version: 6.00 Build 0)  -->
<svg version="1.1" id="레이어_1" xmlns="http://www.w3.org/2000/svg" xmlns:xlink="http://www.w3.org/1999/xlink" x="0px"
	 y="0px" viewBox="0 0 807 1109" style="enable-background:new 0 0 807 1109;" xml:space="preserve">
<style type="text/css">
	.st0{stroke:#000000;stroke-width:5;stroke-miterlimit:10;}
</style>
<g>
	<path class="st0" d="M457.8,415H348.2c-16.1,0-29.2,13.1-29.2,29.2v222c0,16.1,13.1,29.2,29.2,29.2h109.6
		c16.1,0,29.2-13.1,29.3-29.2v-222C487,428.1,474,415,457.8,415L457.8,415z M436,425.5v6.8c0,2.9-2.3,5.2-5.2,5.2h-55.5
		c-2.9,0-5.2-2.3-5.2-5.2v-6.8H436z M476.6,666.2c0,10.4-8.4,18.7-18.8,18.8H348.2c-10.4,0-18.7-8.4-18.8-18.8v-222
		c0-10.4,8.4-18.7,18.8-18.8h11.4v6.8c0,8.7,7,15.7,15.7,15.7h55.5c8.6,0,15.7-7,15.7-15.7v-6.8h11.4c10.3,0,18.7,8.4,18.7,18.8
		V666.2z M476.6,666.2"/>
	<path class="st0" d="M435.3,660h-64.6c-7,0-7,10.5,0,10.5h64.6C442.3,670.5,442.3,660,435.3,660L435.3,660z M435.3,660"/>
</g>
</svg>
