<?xml version="1.0" encoding="utf-8"?>
<!-- Generator: Adobe Illustrator 25.2.1, SVG Export Plug-In . SVG Version: 6.00 Build 0)  -->
<svg version="1.1" id="레이어_1" xmlns="http://www.w3.org/2000/svg" xmlns:xlink="http://www.w3.org/1999/xlink" x="0px"
	 y="0px" viewBox="0 0 807 1109" style="enable-background:new 0 0 807 1109;" xml:space="preserve">
<g>
	<path d="M572.5,382h-339c-12.4,0-22.5,10.1-22.5,22.5V628c0,12.4,10.1,22.5,22.5,22.5h110.2V706H283c-6.2,0-11.2,5-11.2,11.2
		s5,11.2,11.2,11.2h240c6.2,0,11.2-5,11.2-11.2s-5-11.2-11.2-11.2h-60.8v-55.5h110.2c12.4,0,22.5-10.1,22.5-22.5V404.5
		C595,392.1,584.9,382,572.5,382L572.5,382z M439.8,706h-73.5v-55.5h73.5V706z M572.5,628c-9.9,0-331.1,0-339,0V404.5h339
		C572.5,632.9,572.6,628,572.5,628L572.5,628z M572.5,628"/>
</g>
</svg>
