<?xml version="1.0" encoding="utf-8"?>
<!-- Generator: Adobe Illustrator 25.2.1, SVG Export Plug-In . SVG Version: 6.00 Build 0)  -->
<svg version="1.1" id="레이어_1" xmlns="http://www.w3.org/2000/svg" xmlns:xlink="http://www.w3.org/1999/xlink" x="0px"
	 y="0px" viewBox="0 0 595.3 841.9" style="enable-background:new 0 0 595.3 841.9;" xml:space="preserve">
<g>
	<path d="M434.7,525.2c-13.3,0-25.3-8-30.4-20.3c-5.1-12.3-2.3-26.4,7.1-35.9c9.4-9.4,23.6-12.2,35.9-7.1
		c12.3,5.1,20.3,17.1,20.3,30.4C467.6,510.5,452.8,525.2,434.7,525.2L434.7,525.2z M434.7,471.4c-8.5,0-16.1,5.1-19.3,12.9
		c-3.2,7.8-1.5,16.8,4.5,22.8c6,6,15,7.8,22.8,4.5c7.8-3.2,12.9-10.9,12.9-19.3C455.6,480.8,446.2,471.4,434.7,471.4L434.7,471.4z
		 M434.7,471.4"/>
	<path d="M261.3,525.2c-13.3,0-25.3-8-30.4-20.3c-5.1-12.3-2.3-26.4,7.1-35.9c9.4-9.4,23.6-12.2,35.9-7.1
		c12.3,5.1,20.3,17.1,20.3,30.4C294.2,510.4,279.5,525.2,261.3,525.2L261.3,525.2z M261.3,471.4c-8.5,0-16.1,5.1-19.3,12.9
		c-3.2,7.8-1.5,16.8,4.5,22.8c6,6,15,7.8,22.8,4.5c7.8-3.2,12.9-10.9,12.9-19.3C282.2,480.8,272.9,471.4,261.3,471.4L261.3,471.4z
		 M261.3,471.4"/>
	<path d="M478,498.3h-16.4c-3.3,0-6-2.7-6-6c0-3.3,2.7-6,6-6h14.7v-31.8c0-4.3-1.1-8.5-3.2-12.3L440.6,384c-0.6-1-1.6-1.6-2.8-1.6
		h-44.3v104h14.3c3.3,0,6,2.7,6,6c0,3.3-2.7,6-6,6h-20.3c-3.3,0-6-2.7-6-6v-116c0-3.3,2.7-6,6-6h50.3c5.5,0,10.6,3,13.3,7.8
		l32.5,58.2c3.1,5.5,4.7,11.8,4.7,18.1V488C488.3,493.7,483.7,498.3,478,498.3L478,498.3z M478,498.3"/>
	<path d="M234.5,498.3h-57.5c-3.3,0-6-2.7-6-6v-46.1c0-3.3,2.7-6,6-6c3.3,0,6,2.7,6,6v40.1h51.5c3.3,0,6,2.7,6,6
		C240.5,495.6,237.8,498.3,234.5,498.3L234.5,498.3z M234.5,498.3"/>
	<path d="M176.9,424.9c-3.3,0-6-2.7-6-6v-40.3c0-3.3,2.7-6,6-6c3.3,0,6,2.7,6,6v40.3C182.9,422.2,180.2,424.9,176.9,424.9
		L176.9,424.9z M176.9,424.9"/>
	<path d="M387.5,498.3h-99.3c-3.3,0-6-2.7-6-6c0-3.3,2.7-6,6-6h93.3v-157H182.9V444c0,3.3-2.7,6-6,6c-3.3,0-6-2.7-6-6V328.2
		c0-6,4.9-10.9,10.9-10.9h200.8c6,0,10.9,4.9,10.9,10.9v164.1C393.5,495.6,390.9,498.3,387.5,498.3L387.5,498.3z M387.5,498.3"/>
	<path d="M200.7,452.2"/>
	<g>
		<path d="M261.3,424.9"/>
	</g>
	<path d="M218.3,360"/>
</g>
</svg>
