<?xml version="1.0" encoding="utf-8"?>
<!-- Generator: Adobe Illustrator 25.2.1, SVG Export Plug-In . SVG Version: 6.00 Build 0)  -->
<svg version="1.1" id="레이어_1" xmlns="http://www.w3.org/2000/svg" xmlns:xlink="http://www.w3.org/1999/xlink" x="0px"
	 y="0px" viewBox="0 0 807 1109" style="enable-background:new 0 0 807 1109;" xml:space="preserve">
<style type="text/css">
	.st0{clip-path:url(#SVGID_2_);fill-rule:evenodd;clip-rule:evenodd;}
</style>
<g>
	<g>
		<defs>
			<rect id="SVGID_1_" x="264" y="391" width="278" height="328"/>
		</defs>
		<clipPath id="SVGID_2_">
			<use xlink:href="#SVGID_1_"  style="overflow:visible;"/>
		</clipPath>
		<path class="st0" d="M327.2,471h-21.3c-14.7,0-26.9,11.4-27.9,26l-13.7,192c-0.6,7.8,2.1,15.4,7.4,21.1c5.3,5.7,12.7,8.9,20.5,8.9
			h221.6c7.8,0,15.2-3.2,20.5-8.9c5.3-5.7,8-13.3,7.4-21.1L528,497c-1-14.7-13.2-26-27.9-26H479v-4c0-42-34-76-76-76
			c-40.4,0-77.8,32.2-76,76C327.1,468.3,327.1,469.7,327.2,471L327.2,471z M479,495v60c0,6.6-5.4,12-12,12c-6.6,0-12-5.4-12-12v-60
			H351v60c0,6.6-5.4,12-12,12s-12-5.4-12-12c0,0,1-28,0.7-60h-21.8c-2.1,0-3.8,1.6-4,3.7l-13.7,192c-0.1,1.1,0.3,2.2,1.1,3
			c0.8,0.8,1.8,1.3,2.9,1.3h221.6c1.1,0,2.2-0.5,2.9-1.3c0.8-0.8,1.1-1.9,1.1-3l-13.7-192c-0.1-2.1-1.9-3.7-4-3.7H479z M455,471v-4
			c0-28.7-23.3-52-52-52s-52,23.3-52,52v4H455z M455,471"/>
	</g>
</g>
</svg>
