<?xml version="1.0" encoding="utf-8"?>
<!-- Generator: Adobe Illustrator 25.2.1, SVG Export Plug-In . SVG Version: 6.00 Build 0)  -->
<svg version="1.1" id="레이어_1" xmlns="http://www.w3.org/2000/svg" xmlns:xlink="http://www.w3.org/1999/xlink" x="0px"
	 y="0px" viewBox="0 0 595.3 841.9" style="enable-background:new 0 0 595.3 841.9;" xml:space="preserve">
<style type="text/css">
	.st0{clip-path:url(#SVGID_2_);}
</style>
<g>
	<g>
		<defs>
			<rect id="SVGID_1_" x="115" y="229.9" width="364" height="384"/>
		</defs>
		<clipPath id="SVGID_2_">
			<use xlink:href="#SVGID_1_"  style="overflow:visible;"/>
		</clipPath>
		<path class="st0" d="M478.7,311.6c0-4.9-2.9-9.3-7.4-11.1l-169.7-69.7c-2.9-1.2-6.2-1.2-9.1,0l-169.7,69.7
			c-4.5,1.9-7.4,6.2-7.4,11.1v220.6c0,4.9,2.9,9.3,7.4,11.1L292.4,613c2.9,1.2,6.1,1.2,9.1,0c0.1,0-6.3,2.6,169.7-69.7
			c4.5-1.9,7.4-6.2,7.4-11.1V311.6z M297,369.3l-62.5-25.7l135.1-58.9l66.7,27.4L297,369.3z M139.3,330.5l53.9,22.2v62.5
			c0,6.6,5.4,12,12,12c6.6,0,12-5.4,12-12v-52.6l67.7,27.8V584l-145.7-59.8V330.5z M297,254.9l41.6,17.1l-135.1,58.9l-45.8-18.8
			L297,254.9z M309,390.4l145.7-59.8v193.6L309,584V390.4z M309,390.4"/>
	</g>
</g>
</svg>
