<?xml version="1.0" encoding="utf-8"?>
<!-- Generator: Adobe Illustrator 25.2.1, SVG Export Plug-In . SVG Version: 6.00 Build 0)  -->
<svg version="1.1" id="레이어_1" xmlns="http://www.w3.org/2000/svg" xmlns:xlink="http://www.w3.org/1999/xlink" x="0px"
	 y="0px" viewBox="0 0 595.3 841.9" style="enable-background:new 0 0 595.3 841.9;" xml:space="preserve">
<style type="text/css">
	.st0{clip-path:url(#SVGID_2_);}
</style>
<g>
	<g>
		<defs>
			<rect id="SVGID_1_" x="121" y="245.9" width="352" height="352"/>
		</defs>
		<clipPath id="SVGID_2_">
			<use xlink:href="#SVGID_1_"  style="overflow:visible;"/>
		</clipPath>
		<path class="st0" d="M468.6,330.7l-168-84c-2.2-1.1-4.9-1.1-7.2,0l-168,84c-2.7,1.4-4.4,4.1-4.4,7.2v168c0,3,1.7,5.8,4.4,7.2
			l168,84c1.1,0.6,2.4,0.8,3.6,0.8c1.2,0,2.5-0.3,3.6-0.8l168-84c2.7-1.4,4.4-4.1,4.4-7.2v-168C473,334.9,471.3,332.1,468.6,330.7
			L468.6,330.7z M297,262.8l150.1,75.1L415,353.9l-150.1-75.1L297,262.8z M351,385.9l-150.1-75.1l46.1-23.1l150.1,75.1L351,385.9z
			 M357,400.8l48-24v59.5l-15.4-11c-1.7-1.2-3.9-1.7-6-1.4c-2.1,0.4-4,1.6-5.2,3.3L357,458.3V400.8z M183,319.8l150.1,75.1
			L297,412.9l-150.1-75.1L183,319.8z M137,350.8l152,76v150.1l-152-76V350.8z M305,576.9V426.8l36-18v75.1c0,3.5,2.3,6.6,5.6,7.6
			c0.8,0.2,1.6,0.4,2.4,0.4c2.6,0,5.1-1.2,6.6-3.4l31.4-45.3l21.4,15.3c2.4,1.7,5.6,2,8.3,0.6c2.7-1.4,4.3-4.1,4.3-7.1v-83.1l36-18
			v150.1L305,576.9z M305,576.9"/>
	</g>
</g>
</svg>
