<?xml version="1.0" encoding="utf-8"?>
<!-- Generator: Adobe Illustrator 25.2.1, SVG Export Plug-In . SVG Version: 6.00 Build 0)  -->
<svg version="1.1" id="레이어_1" xmlns="http://www.w3.org/2000/svg" xmlns:xlink="http://www.w3.org/1999/xlink" x="0px"
	 y="0px" viewBox="0 0 595.3 841.9" style="enable-background:new 0 0 595.3 841.9;" xml:space="preserve">
<style type="text/css">
	.st0{clip-path:url(#SVGID_2_);}
</style>
<g>
	<g>
		<defs>
			<rect id="SVGID_1_" x="110" y="229.9" width="374" height="384"/>
		</defs>
		<clipPath id="SVGID_2_">
			<use xlink:href="#SVGID_1_"  style="overflow:visible;"/>
		</clipPath>
		<path class="st0" d="M472.1,452.4l-16-13.1c-10.9-9-10.9-25.8,0-34.7l16-13.1c11.4-9.4,14.3-25.4,6.9-38.2l-31.5-54.6
			c-7.4-12.8-22.7-18.3-36.5-13.1l-19.4,7.3c-13.3,5-27.8-3.4-30.1-17.4l-3.4-20.4c-2.4-14.5-14.9-25.1-29.6-25.1h-63.1
			c-14.7,0-27.2,10.5-29.6,25.1l-3.4,20.4c-2.3,14-16.8,22.3-30.1,17.4l-19.4-7.3c-13.8-5.2-29.1,0.3-36.5,13.1L115,353.2
			c-7.4,12.8-4.5,28.8,6.9,38.2l16,13.2c10.9,9,10.9,25.8,0,34.7l-16,13.1c-11.4,9.4-14.3,25.4-6.9,38.2l31.5,54.6
			c7.4,12.8,22.7,18.3,36.5,13.1l19.4-7.3c13.3-5,27.8,3.4,30.1,17.4l3.4,20.4c2.4,14.5,14.9,25.1,29.6,25.1h63.1
			c14.7,0,27.2-10.5,29.6-25.1l3.4-20.4c2.3-14,16.8-22.3,30.1-17.4l19.4,7.3c13.8,5.2,29.1-0.3,36.5-13.1l31.5-54.6
			C486.4,477.8,483.5,461.8,472.1,452.4L472.1,452.4z M421.5,530.2l-19.4-7.3c-31-11.6-64.8,8-70.2,40.5l-3.4,20.4h-63.1l-3.4-20.4
			c-5.4-32.6-39.3-52.1-70.2-40.5l-19.4,7.3l-31.5-54.6l16-13.2c25.5-21,25.5-60.1,0-81.1l-16-13.2l31.5-54.6l19.4,7.3
			c31,11.6,64.8-8,70.2-40.5l3.4-20.4h63.1l3.4,20.4c5.4,32.6,39.3,52.1,70.2,40.5l19.4-7.3l31.6,54.6c0,0,0,0,0,0l-16,13.2
			c-25.5,21-25.5,60.1,0,81.1l16,13.2L421.5,530.2z M297,347.9c-40.8,0-74,33.2-74,74c0,40.8,33.2,74,74,74s74-33.2,74-74
			C371,381.1,337.8,347.9,297,347.9L297,347.9z M297,465.9c-24.3,0-44-19.7-44-44c0-24.3,19.7-44,44-44c24.3,0,44,19.7,44,44
			C341,446.2,321.3,465.9,297,465.9L297,465.9z M297,465.9"/>
	</g>
</g>
</svg>
