<?xml version="1.0" encoding="utf-8"?>
<!-- Generator: Adobe Illustrator 25.2.1, SVG Export Plug-In . SVG Version: 6.00 Build 0)  -->
<svg version="1.1" id="레이어_1" xmlns="http://www.w3.org/2000/svg" xmlns:xlink="http://www.w3.org/1999/xlink" x="0px"
	 y="0px" viewBox="0 0 807 1109" style="enable-background:new 0 0 807 1109;" xml:space="preserve">
<g>
	<path d="M487,723c33.1,0,60-26.9,60-60V447c0-33.1-26.9-60-60-60H319c-33.1,0-60,26.9-60,60v216c0,33.1,26.9,60,60,60H487z
		 M283,447c0-19.9,16.1-36,36-36h168c19.9,0,36,16.1,36,36v216c0,19.9-16.1,36-36,36H319c-19.9,0-36-16.1-36-36V447z M283,447"/>
	<path d="M379,567h96c6.6,0,12-5.4,12-12s-5.4-12-12-12h-96c-6.6,0-12,5.4-12,12S372.4,567,379,567L379,567z M379,567"/>
	<path d="M379,507h96c6.6,0,12-5.4,12-12s-5.4-12-12-12h-96c-6.6,0-12,5.4-12,12S372.4,507,379,507L379,507z M379,507"/>
	<path d="M379,627h96c6.6,0,12-5.4,12-12s-5.4-12-12-12h-96c-6.6,0-12,5.4-12,12S372.4,627,379,627L379,627z M379,627"/>
	<path d="M331.2,507c6.6,0,12-5.4,12-12s-5.4-12-12-12h-0.1c-6.6,0-11.9,5.4-11.9,12S324.6,507,331.2,507L331.2,507z M331.2,507"/>
	<path d="M331.2,567c6.6,0,12-5.4,12-12s-5.4-12-12-12h-0.1c-6.6,0-11.9,5.4-11.9,12S324.6,567,331.2,567L331.2,567z M331.2,567"/>
	<path d="M331.2,627c6.6,0,12-5.4,12-12s-5.4-12-12-12h-0.1c-6.6,0-11.9,5.4-11.9,12S324.6,627,331.2,627L331.2,627z M331.2,627"/>
</g>
</svg>
