<?xml version="1.0" encoding="utf-8"?>
<!-- Generator: Adobe Illustrator 25.2.1, SVG Export Plug-In . SVG Version: 6.00 Build 0)  -->
<svg version="1.1" id="레이어_1" xmlns="http://www.w3.org/2000/svg" xmlns:xlink="http://www.w3.org/1999/xlink" x="0px"
	 y="0px" viewBox="0 0 595.3 841.9" style="enable-background:new 0 0 595.3 841.9;" xml:space="preserve">
<path d="M297,229.9c-106.1,0-192,85.9-192,192c0,106.1,85.9,192,192,192c106.1,0,192-85.9,192-192C489,315.8,403.1,229.9,297,229.9z
	 M291.3,511.8c-10.9,0-19.2-9.1-19.2-19.5c0-10.6,8.6-19.5,19.2-19.5c10.6,0,19.5,8.8,19.5,19.5
	C310.8,502.7,302.2,511.8,291.3,511.8z M320.1,413.4C306.2,424.3,306,431.9,306,445c0,4.8-2.5,10.4-14.9,10.4
	c-10.4,0-13.9-3.8-13.9-16.9c0-21.7,9.6-32.1,16.9-38.4c8.3-7.1,22.5-14.9,22.5-28.6c0-11.6-10.1-17.2-22.7-17.2
	c-25.8,0-20.2,19.5-33.9,19.5c-6.8,0-15.2-4.6-15.2-14.4c0-13.6,15.7-33.9,49.8-33.9c32.3,0,53.8,17.9,53.8,41.7
	C348.4,390.9,327,408.1,320.1,413.4z"/>
</svg>
