<?xml version="1.0" encoding="utf-8"?>
<!-- Generator: Adobe Illustrator 25.2.1, SVG Export Plug-In . SVG Version: 6.00 Build 0)  -->
<svg version="1.1" id="레이어_1" xmlns="http://www.w3.org/2000/svg" xmlns:xlink="http://www.w3.org/1999/xlink" x="0px"
	 y="0px" viewBox="0 0 807 1109" style="enable-background:new 0 0 807 1109;" xml:space="preserve">
<style type="text/css">
	.st0{clip-path:url(#SVGID_2_);}
</style>
<g>
	<g>
		<defs>
			<rect id="SVGID_1_" x="227" y="378" width="353" height="353"/>
		</defs>
		<clipPath id="SVGID_2_">
			<use xlink:href="#SVGID_1_"  style="overflow:visible;"/>
		</clipPath>
		<path class="st0" d="M404,378c-71.2,0-135.4,42.9-162.6,108.6c-27.2,65.8-12.2,141.5,38.2,191.8c50.3,50.3,126,65.4,191.8,38.2
			C537.1,689.4,580,625.2,580,554C579.9,456.8,501.2,378.1,404,378L404,378z M404,698c-58.2,0-110.8-35.1-133-88.9
			c-22.3-53.8-10-115.7,31.2-156.9c41.2-41.2,103.1-53.5,156.9-31.2c53.8,22.3,88.9,74.8,88.9,133C547.9,633.5,483.5,697.9,404,698
			L404,698z M404,698"/>
	</g>
	<path d="M420,547.4V458c0-8.8-7.2-16-16-16s-16,7.2-16,16v96c0,4.2,1.7,8.3,4.7,11.3l48,48c6.3,6.1,16.3,6,22.4-0.2
		c6.2-6.2,6.3-16.2,0.2-22.4L420,547.4z M420,547.4"/>
</g>
</svg>
