<?xml version="1.0" encoding="utf-8"?>
<!-- Generator: Adobe Illustrator 25.2.1, SVG Export Plug-In . SVG Version: 6.00 Build 0)  -->
<svg version="1.1" id="레이어_1" xmlns="http://www.w3.org/2000/svg" xmlns:xlink="http://www.w3.org/1999/xlink" x="0px"
	 y="0px" viewBox="0 0 807 1109" style="enable-background:new 0 0 807 1109;" xml:space="preserve">
<style type="text/css">
	.st0{clip-path:url(#SVGID_2_);fill-rule:evenodd;clip-rule:evenodd;}
</style>
<g>
	<g>
		<defs>
			<rect id="SVGID_1_" x="211" y="443" width="384" height="224"/>
		</defs>
		<clipPath id="SVGID_2_">
			<use xlink:href="#SVGID_1_"  style="overflow:visible;"/>
		</clipPath>
		<path class="st0" d="M590.3,447.7c6.2,6.2,6.2,16.4,0,22.6l-152,152c-6.2,6.2-16.4,6.2-22.6,0L347,553.6L238.3,662.3
			c-6.2,6.2-16.4,6.2-22.6,0c-6.2-6.2-6.2-16.4,0-22.6l120-120c6.2-6.2,16.4-6.2,22.6,0l68.7,68.7l140.7-140.7
			C573.9,441.4,584.1,441.4,590.3,447.7L590.3,447.7z M590.3,447.7"/>
		<path class="st0" d="M467,459c0-8.8,7.2-16,16-16h96c8.8,0,16,7.2,16,16v96c0,8.8-7.2,16-16,16c-8.8,0-16-7.2-16-16v-80h-80
			C474.2,475,467,467.8,467,459L467,459z M467,459"/>
	</g>
</g>
</svg>
