<?xml version="1.0" encoding="utf-8"?>
<!-- Generator: Adobe Illustrator 25.2.1, SVG Export Plug-In . SVG Version: 6.00 Build 0)  -->
<svg version="1.1" id="레이어_1" xmlns="http://www.w3.org/2000/svg" xmlns:xlink="http://www.w3.org/1999/xlink" x="0px"
	 y="0px" viewBox="0 0 807 1109" style="enable-background:new 0 0 807 1109;" xml:space="preserve">
<style type="text/css">
	.st0{clip-path:url(#SVGID_2_);}
</style>
<g>
	<g>
		<defs>
			<rect id="SVGID_1_" x="218" y="362" width="370" height="385"/>
		</defs>
		<clipPath id="SVGID_2_">
			<use xlink:href="#SVGID_1_"  style="overflow:visible;"/>
		</clipPath>
		<path class="st0" d="M567.4,560.4c-2.5-3.9-2.5-8.9,0-12.7l14-21.6c12.8-19.6,4.2-46-17.7-54.4l-24-9.2c-4.3-1.7-7.3-5.7-7.5-10.3
			l-1.3-25.7c-1.2-23.4-23.7-39.7-46.2-33.6l-24.8,6.7c-4.5,1.2-9.2-0.3-12.1-3.9l-16.2-20c-14.7-18.2-42.5-18.2-57.2,0l-16.2,20
			c-2.9,3.6-7.7,5.1-12.1,3.9l-24.8-6.7c-22.6-6.1-45,10.3-46.2,33.6l-1.3,25.7c-0.2,4.6-3.2,8.7-7.5,10.3l-24,9.2
			c-21.9,8.4-30.4,34.8-17.7,54.4l14,21.6c2.5,3.9,2.5,8.9,0,12.7l-14,21.6c-12.8,19.6-4.2,46,17.7,54.4l24,9.2
			c4.3,1.7,7.3,5.7,7.5,10.3l1.3,25.7c1.2,23.4,23.7,39.7,46.2,33.6l24.8-6.7c4.5-1.2,9.2,0.3,12.1,3.9l16.2,20
			c14.7,18.2,42.5,18.2,57.2,0l16.2-20c2.9-3.6,7.7-5.1,12.1-3.9l24.8,6.7c22.6,6.1,45-10.3,46.3-33.6l1.3-25.7
			c0.2-4.6,3.2-8.7,7.5-10.3l24-9.2c21.9-8.4,30.4-34.8,17.7-54.4L567.4,560.4z M554.8,612.9l-24,9.2c-13.6,5.2-22.8,17.9-23.6,32.4
			l-1.3,25.7c-0.4,7.4-7.5,12.6-14.7,10.7l-24.8-6.7c-14-3.8-29,1.1-38.1,12.4l-16.2,20c-4.7,5.8-13.5,5.8-18.2,0l-16.2-20
			c-7.1-8.8-17.7-13.6-28.6-13.6c-3.2,0-6.4,0.4-9.5,1.3l-24.8,6.7c-7.2,1.9-14.3-3.3-14.7-10.7l-1.3-25.7
			c-0.7-14.5-10-27.2-23.6-32.4l-24-9.2c-7-2.7-9.7-11.1-5.6-17.3l14-21.6c7.9-12.2,7.9-27.9,0-40.1l-14-21.6
			c-4.1-6.2-1.3-14.6,5.6-17.3l24-9.2c13.6-5.2,22.8-17.9,23.6-32.4l1.3-25.7c0.4-7.4,7.5-12.6,14.7-10.7l24.8,6.7
			c14,3.8,29-1.1,38.1-12.4l16.2-20c4.7-5.8,13.5-5.8,18.2,0l16.2,20c9.1,11.3,24.1,16.2,38.1,12.4l24.8-6.7
			c7.2-1.9,14.3,3.3,14.7,10.7l1.3,25.7c0.7,14.5,10,27.2,23.6,32.4l24,9.2c7,2.7,9.7,11.1,5.6,17.3l-14,21.6
			c-7.9,12.2-7.9,27.9,0,40.1l14,21.6C564.5,601.8,561.8,610.2,554.8,612.9L554.8,612.9z M554.8,612.9"/>
	</g>
	<path d="M465.6,490.1c-4.9-4.9-12.8-4.9-17.7,0l-117,117c-4.9,4.9-4.9,12.8,0,17.7c2.4,2.4,5.7,3.7,8.9,3.7s6.4-1.2,8.9-3.7
		l117-117C470.5,503,470.5,495,465.6,490.1L465.6,490.1z M465.6,490.1"/>
	<path d="M352.3,486.5c-13.8,0-25.1,11.2-25.1,25.1c0,13.8,11.2,25.1,25.1,25.1c13.8,0,25.1-11.2,25.1-25.1
		C377.4,497.7,366.1,486.5,352.3,486.5L352.3,486.5z M352.3,486.5"/>
	<path d="M444.2,578.4c-13.8,0-25.1,11.2-25.1,25.1c0,13.8,11.2,25.1,25.1,25.1c13.8,0,25.1-11.2,25.1-25.1
		C469.3,589.6,458,578.4,444.2,578.4L444.2,578.4z M444.2,578.4"/>
</g>
</svg>
