<?xml version="1.0" encoding="utf-8"?>
<!-- Generator: Adobe Illustrator 25.2.1, SVG Export Plug-In . SVG Version: 6.00 Build 0)  -->
<svg version="1.1" id="레이어_1" xmlns="http://www.w3.org/2000/svg" xmlns:xlink="http://www.w3.org/1999/xlink" x="0px"
	 y="0px" viewBox="0 0 595.3 841.9" style="enable-background:new 0 0 595.3 841.9;" xml:space="preserve">
<style type="text/css">
	.st0{clip-path:url(#SVGID_2_);}
</style>
<g>
	<g>
		<defs>
			<rect id="SVGID_1_" x="135" y="258.9" width="325" height="325"/>
		</defs>
		<clipPath id="SVGID_2_">
			<use xlink:href="#SVGID_1_"  style="overflow:visible;"/>
		</clipPath>
		<path class="st0" d="M457.3,416.1l-34.2-42.8c-3-3.8-7.6-5.9-12.4-5.9h0c-5.4,0-10.3,3-12.8,7.7c-2.5,4.8-2.2,10.5,0.8,15
			l8.6,12.8H315v-92.3l12.8,8.6c4.5,3,10.2,3.3,15,0.8c4.8-2.5,7.7-7.5,7.7-12.8v0c0-4.8-2.2-9.4-5.9-12.4l-42.8-34.2
			c-2.8-2.2-6.7-2.2-9.5,0l-42.8,34.2c-3.8,3-5.9,7.6-5.9,12.4v0c0,5.4,3,10.3,7.7,12.8c4.8,2.5,10.5,2.2,15-0.8l12.8-8.6v92.3
			h-92.3l8.6-12.8c3-4.5,3.3-10.2,0.8-15c-2.5-4.8-7.5-7.7-12.8-7.7h0c-4.8,0-9.4,2.2-12.4,5.9l-34.2,42.8c-2.2,2.8-2.2,6.7,0,9.5
			l34.2,42.8c3,3.8,7.6,5.9,12.4,5.9h0c5.4,0,10.3-3,12.8-7.7c2.5-4.8,2.2-10.5-0.8-15l-8.6-12.8H279v92.3l-12.8-8.6
			c-4.5-3-10.2-3.3-15-0.8c-4.8,2.5-7.7,7.5-7.7,12.8v0c0,4.8,2.2,9.4,5.9,12.4l42.8,34.2c2.8,2.2,6.7,2.2,9.5,0l42.8-34.2
			c3.8-3,5.9-7.6,5.9-12.4v0c0-5.4-3-10.3-7.7-12.8c-4.8-2.5-10.5-2.2-15,0.8l-12.8,8.6v-92.3h92.3l-8.6,12.8
			c-3,4.5-3.3,10.2-0.8,15c2.5,4.8,7.5,7.7,12.8,7.7h0c4.8,0,9.4-2.2,12.4-5.9l34.2-42.8C459.6,422.9,459.6,418.9,457.3,416.1
			L457.3,416.1z M457.3,416.1"/>
	</g>
</g>
</svg>
