<?xml version="1.0" encoding="utf-8"?>
<!-- Generator: Adobe Illustrator 25.2.1, SVG Export Plug-In . SVG Version: 6.00 Build 0)  -->
<svg version="1.1" id="레이어_1" xmlns="http://www.w3.org/2000/svg" xmlns:xlink="http://www.w3.org/1999/xlink" x="0px"
	 y="0px" viewBox="0 0 807 1109" style="enable-background:new 0 0 807 1109;" xml:space="preserve">
<style type="text/css">
	.st0{clip-path:url(#SVGID_2_);fill:#2C384C;}
</style>
<g>
	<g>
		<defs>
			<rect id="SVGID_1_" x="245" y="374" width="315" height="361"/>
		</defs>
		<clipPath id="SVGID_2_">
			<use xlink:href="#SVGID_1_"  style="overflow:visible;"/>
		</clipPath>
		<path class="st0" d="M548.2,485l-126-103.8c-11.4-9.6-27.6-9.6-39,0L257.2,485c-7.2,6-11.4,14.4-11.4,24v195
			c0,16.8,13.8,30.6,30.6,30.6h252c16.8,0,30.6-13.8,30.6-30.6V508.4C559.6,499.4,555.4,490.4,548.2,485L548.2,485z M505.6,675.2
			c0,7.2-6,13.2-13.2,13.2H313.6c-7.2,0-13.2-6-13.2-13.2v-12c0-7.2,6-13.2,13.2-13.2h178.8c7.2,0,13.2,6,13.2,13.2V675.2z
			 M505.6,675.2"/>
	</g>
</g>
</svg>
