<?xml version="1.0" encoding="utf-8"?>
<!-- Generator: Adobe Illustrator 25.2.1, SVG Export Plug-In . SVG Version: 6.00 Build 0)  -->
<svg version="1.1" id="레이어_1" xmlns="http://www.w3.org/2000/svg" xmlns:xlink="http://www.w3.org/1999/xlink" x="0px"
	 y="0px" viewBox="0 0 807 1109" style="enable-background:new 0 0 807 1109;" xml:space="preserve">
<g>
	<path d="M402.8,363c-55.8,0-101.2,45.4-101.2,101.2s45.4,101.2,101.2,101.2S504,520.1,504,464.2S458.6,363,402.8,363L402.8,363z
		 M402.8,363"/>
	<path d="M528.7,631.6C501,603.5,464.3,588,425.2,588h-45c-39,0-75.8,15.5-103.5,43.6c-27.6,28-42.8,65-42.8,104.1
		c0,6.2,5,11.2,11.2,11.2h315c6.2,0,11.2-5,11.2-11.2C571.5,696.6,556.3,659.7,528.7,631.6L528.7,631.6z M528.7,631.6"/>
</g>
</svg>
