<svg 
 xmlns="http://www.w3.org/2000/svg"
 xmlns:xlink="http://www.w3.org/1999/xlink"
 width="186px" height="265px">
<path fill-rule="evenodd"  fill="rgb(0, 0, 0)"
 d="M168.861,231.280 L86.846,231.280 C89.516,235.431 90.973,240.315 90.973,245.260 L90.973,259.705 C90.973,262.474 88.715,264.721 85.932,264.721 C83.149,264.721 80.891,262.474 80.891,259.705 L80.891,245.260 C80.891,241.772 79.713,238.334 77.571,235.574 L59.430,212.191 C55.935,207.685 54.008,202.067 54.008,196.372 L54.008,149.988 C54.008,137.706 43.970,127.716 31.628,127.716 C30.999,127.716 30.486,128.228 30.486,128.855 L30.486,192.822 C30.486,195.591 28.229,197.838 25.446,197.838 C22.663,197.838 20.405,195.591 20.405,192.822 L20.405,128.855 C20.405,122.696 25.439,117.683 31.628,117.683 C32.375,117.683 33.113,117.717 33.846,117.767 L33.846,67.180 L26.178,76.940 C15.955,89.947 10.324,106.208 10.324,122.722 L10.324,259.705 C10.324,262.474 8.067,264.721 5.284,264.721 C2.501,264.721 0.243,262.474 0.243,259.705 L0.243,122.722 C0.243,103.977 6.633,85.525 18.236,70.761 L33.846,50.896 L33.846,16.657 C33.846,7.767 41.115,0.534 50.047,0.534 L168.861,0.534 C177.794,0.534 185.062,7.767 185.062,16.657 L185.062,215.157 C185.062,224.046 177.794,231.280 168.861,231.280 ZM174.981,16.657 C174.981,13.300 172.234,10.566 168.861,10.566 L50.047,10.566 C46.674,10.566 43.928,13.300 43.928,16.657 L43.928,40.971 C44.456,40.784 45.016,40.664 45.608,40.664 L174.981,40.664 L174.981,16.657 ZM174.981,50.696 L45.608,50.696 C45.016,50.696 44.456,50.575 43.928,50.388 L43.928,119.251 C43.928,119.530 43.889,119.799 43.845,120.066 C55.705,124.880 64.090,136.476 64.090,149.988 L64.090,181.118 L174.981,181.118 L174.981,50.696 ZM174.981,191.150 L64.090,191.150 L64.090,196.372 C64.090,199.859 65.268,203.298 67.410,206.058 L79.196,221.249 C79.201,221.249 79.206,221.247 79.212,221.247 L168.861,221.247 C172.234,221.247 174.981,218.514 174.981,215.157 L174.981,191.150 ZM126.256,211.215 L106.094,211.215 C103.311,211.215 101.053,208.968 101.053,206.198 C101.053,203.429 103.311,201.182 106.094,201.182 L126.256,201.182 C129.039,201.182 131.297,203.429 131.297,206.198 C131.297,208.968 129.039,211.215 126.256,211.215 ZM109.454,60.729 C128.911,60.729 144.738,76.479 144.738,95.842 L144.738,102.530 C144.738,121.893 128.911,137.644 109.454,137.644 C89.998,137.644 74.171,121.893 74.171,102.530 L74.171,95.842 C74.171,76.479 89.998,60.729 109.454,60.729 ZM84.252,102.530 C84.252,116.361 95.556,127.612 109.454,127.612 C123.352,127.612 134.657,116.361 134.657,102.530 L134.657,95.842 C134.657,82.011 123.352,70.761 109.454,70.761 C95.556,70.761 84.252,82.011 84.252,95.842 L84.252,102.530 ZM79.212,147.676 L146.418,147.676 C156.611,147.676 164.900,155.926 164.900,166.069 C164.900,168.839 162.642,171.085 159.860,171.085 C157.076,171.085 154.819,168.839 154.819,166.069 C154.819,161.458 151.052,157.708 146.418,157.708 L79.212,157.708 C76.428,157.708 74.171,155.462 74.171,152.692 C74.171,149.922 76.428,147.676 79.212,147.676 ZM92.653,20.599 L126.256,20.599 C129.039,20.599 131.297,22.846 131.297,25.615 C131.297,28.384 129.039,30.631 126.256,30.631 L92.653,30.631 C89.870,30.631 87.612,28.384 87.612,25.615 C87.612,22.846 89.870,20.599 92.653,20.599 Z"/>
</svg>