<?xml version="1.0" encoding="UTF-8"?>
<svg xmlns="http://www.w3.org/2000/svg" id="Layer_1" data-name="Layer 1" viewBox="0 0 512 512" width="512" height="512"><path d="M403.042,325.8l22.744-123.474A85.3,85.3,0,1,0,298.667,128H117l-1.543-6.945A31.815,31.815,0,0,0,84.219,96H53.333a10.667,10.667,0,1,0,0,21.333H84.219a10.609,10.609,0,0,1,10.417,8.354l57.844,260.3a42.752,42.752,0,1,0,49.747,19.346H336.44A42.63,42.63,0,1,0,373.333,384H173.891l-7.111-32H371.573A32,32,0,0,0,403.042,325.8ZM384,64a64,64,0,1,1-64,64A64.072,64.072,0,0,1,384,64ZM186.667,426.667a21.333,21.333,0,1,1-21.333-21.333A21.354,21.354,0,0,1,186.667,426.667Zm208,0a21.333,21.333,0,1,1-21.333-21.333A21.354,21.354,0,0,1,394.667,426.667ZM121.742,149.333H301.475a84.984,84.984,0,0,0,100.971,61.936L382.063,321.932a10.664,10.664,0,0,1-10.49,8.734H162.039Z"/><path d="M352,138.667h21.333V160a10.667,10.667,0,0,0,21.333,0V138.667H416a10.667,10.667,0,1,0,0-21.333H394.667V96a10.667,10.667,0,0,0-21.333,0v21.333H352a10.667,10.667,0,0,0,0,21.333Z"/></svg>
