<svg id="Layer_1" enable-background="new 0 0 20 20" height="512" viewBox="0 0 20 20" width="512" xmlns="http://www.w3.org/2000/svg"><switch><g><g><path d="m10 19.5c-2.5 0-4.9-1-6.7-2.8s-2.8-4.2-2.8-6.7 1-4.9 2.8-6.7 4.2-2.8 6.7-2.8 4.9 1 6.7 2.8 2.8 4.2 2.8 6.7-1 4.9-2.8 6.7-4.2 2.8-6.7 2.8zm0-18c-4.7 0-8.5 3.8-8.5 8.5s3.8 8.5 8.5 8.5 8.5-3.8 8.5-8.5-3.8-8.5-8.5-8.5z"/><path d="m8 14c-.1 0-.3 0-.4-.1l-3-3c-.2-.2-.2-.5 0-.7s.5-.2.7 0l2.7 2.6 6.6-6.6c.2-.2.5-.2.7 0s.2.5 0 .7l-7 7c0 .1-.2.1-.3.1z"/></g></g></switch></svg>