<?xml version="1.0" encoding="UTF-8" standalone="no"?>
<!-- Created with Inkscape (http://www.inkscape.org/) -->
<svg xmlns="http://www.w3.org/2000/svg" xmlnsSvg="http://www.w3.org/2000/svg" version="1.1" id="svg1755" width="682.66669" height="682.66669" viewBox="0 0 682.66669 682.66669">
  <defs id="defs1759">
    <clipPath clipPathUnits="userSpaceOnUse" id="clipPath1769">
      <path d="M 0,512 H 512 V 0 H 0 Z" id="path1767"/>
    </clipPath>
  </defs>
  <mask id="custom"><rect id="bg" x="0" y="0" width="100%" height="100%" fill="white"/><g transform="matrix(1.3333333,0,0,-1.3333333,0,682.66667)"><path transform="matrix(1,0,0,1,171,337)" d="m 0,0 c 0,-8.284 -6.716,-15 -15,-15 -8.284,0 -15,6.716 -15,15 0,8.284 6.716,15 15,15 C -6.716,15 0,8.284 0,0" style="fill:#ffffff;fill-opacity:1;fill-rule:nonzero;stroke:none" id="path1785"/><path transform="matrix(1,0,0,1,171,277)" d="m 0,0 c 0,-8.284 -6.716,-15 -15,-15 -8.284,0 -15,6.716 -15,15 0,8.284 6.716,15 15,15 C -6.716,15 0,8.284 0,0" style="fill:#ffffff;fill-opacity:1;fill-rule:nonzero;stroke:none" id="path1793"/><path transform="matrix(1,0,0,1,171,217)" d="m 0,0 c 0,-8.284 -6.716,-15 -15,-15 -8.284,0 -15,6.716 -15,15 0,8.284 6.716,15 15,15 C -6.716,15 0,8.284 0,0" style="fill:#ffffff;fill-opacity:1;fill-rule:nonzero;stroke:none" id="path1801"/><path transform="matrix(1,0,0,1,171,157)" d="m 0,0 c 0,-8.284 -6.716,-15 -15,-15 -8.284,0 -15,6.716 -15,15 0,8.284 6.716,15 15,15 C -6.716,15 0,8.284 0,0" style="fill:#ffffff;fill-opacity:1;fill-rule:nonzero;stroke:none" id="path1809"/><path transform="matrix(1,0,0,1,171,97)" d="m 0,0 c 0,-8.284 -6.716,-15 -15,-15 -8.284,0 -15,6.716 -15,15 0,8.284 6.716,15 15,15 C -6.716,15 0,8.284 0,0" style="fill:#ffffff;fill-opacity:1;fill-rule:nonzero;stroke:none" id="path1817"/></g></mask><g mask="url(#custom)"><g id="g1761" transform="matrix(1.3333333,0,0,-1.3333333,0,682.66667)">
    <g id="g1763">
      <g id="g1765" clip-path="url(#clipPath1769)">
        <g id="g1771" transform="translate(206,457)">
          <path d="m 0,0 h -80 c -16.569,0 -30,-13.431 -30,-30 v -382 c 0,-16.569 13.431,-30 30,-30 h 260 c 16.569,0 30,13.431 30,30 v 382 c 0,16.569 -13.431,30 -30,30 h -80" style="fill:none;stroke:#000000;stroke-width:30;stroke-linecap:round;stroke-linejoin:round;stroke-miterlimit:10;stroke-dasharray:none;stroke-opacity:1" id="path1773"/>
        </g>
        <g id="g1775" transform="translate(306,457)">
          <path d="m 0,0 v 20 c 0,11.046 -8.954,20 -20,20 h -60 c -11.046,0 -20,-8.954 -20,-20 V 0 l -13.359,-8.906 C -123.755,-15.837 -130,-27.505 -130,-40 v 0 H 30 v 0 c 0,12.495 -6.245,24.163 -16.641,31.094 z" style="fill:none;stroke:#000000;stroke-width:30;stroke-linecap:round;stroke-linejoin:round;stroke-miterlimit:10;stroke-dasharray:none;stroke-opacity:1" id="path1777"/>
        </g>
        <g id="g1779" transform="translate(216,337)">
          <path d="M 0,0 H 140" style="fill:none;stroke:#000000;stroke-width:30;stroke-linecap:round;stroke-linejoin:round;stroke-miterlimit:10;stroke-dasharray:none;stroke-opacity:1" id="path1781"/>
        </g>
        <g id="g1783" transform="translate(171,337)">
          <path d="m 0,0 c 0,-8.284 -6.716,-15 -15,-15 -8.284,0 -15,6.716 -15,15 0,8.284 6.716,15 15,15 C -6.716,15 0,8.284 0,0" style="fill:#000000;fill-opacity:1;fill-rule:nonzero;stroke:none" id="path1785"/>
        </g>
        <g id="g1787" transform="translate(216,277)">
          <path d="M 0,0 H 140" style="fill:none;stroke:#000000;stroke-width:30;stroke-linecap:round;stroke-linejoin:round;stroke-miterlimit:10;stroke-dasharray:none;stroke-opacity:1" id="path1789"/>
        </g>
        <g id="g1791" transform="translate(171,277)">
          <path d="m 0,0 c 0,-8.284 -6.716,-15 -15,-15 -8.284,0 -15,6.716 -15,15 0,8.284 6.716,15 15,15 C -6.716,15 0,8.284 0,0" style="fill:#000000;fill-opacity:1;fill-rule:nonzero;stroke:none" id="path1793"/>
        </g>
        <g id="g1795" transform="translate(216,217)">
          <path d="M 0,0 H 140" style="fill:none;stroke:#000000;stroke-width:30;stroke-linecap:round;stroke-linejoin:round;stroke-miterlimit:10;stroke-dasharray:none;stroke-opacity:1" id="path1797"/>
        </g>
        <g id="g1799" transform="translate(171,217)">
          <path d="m 0,0 c 0,-8.284 -6.716,-15 -15,-15 -8.284,0 -15,6.716 -15,15 0,8.284 6.716,15 15,15 C -6.716,15 0,8.284 0,0" style="fill:#000000;fill-opacity:1;fill-rule:nonzero;stroke:none" id="path1801"/>
        </g>
        <g id="g1803" transform="translate(216,157)">
          <path d="M 0,0 H 140" style="fill:none;stroke:#000000;stroke-width:30;stroke-linecap:round;stroke-linejoin:round;stroke-miterlimit:10;stroke-dasharray:none;stroke-opacity:1" id="path1805"/>
        </g>
        <g id="g1807" transform="translate(171,157)">
          <path d="m 0,0 c 0,-8.284 -6.716,-15 -15,-15 -8.284,0 -15,6.716 -15,15 0,8.284 6.716,15 15,15 C -6.716,15 0,8.284 0,0" style="fill:#000000;fill-opacity:1;fill-rule:nonzero;stroke:none" id="path1809"/>
        </g>
        <g id="g1811" transform="translate(216,97)">
          <path d="M 0,0 H 140" style="fill:none;stroke:#000000;stroke-width:30;stroke-linecap:round;stroke-linejoin:round;stroke-miterlimit:10;stroke-dasharray:none;stroke-opacity:1" id="path1813"/>
        </g>
        <g id="g1815" transform="translate(171,97)">
          <path d="m 0,0 c 0,-8.284 -6.716,-15 -15,-15 -8.284,0 -15,6.716 -15,15 0,8.284 6.716,15 15,15 C -6.716,15 0,8.284 0,0" style="fill:#000000;fill-opacity:1;fill-rule:nonzero;stroke:none" id="path1817"/>
        </g>
      </g>
    </g>
  </g></g>
</svg>
