<svg version="1.1" xmlns="http://www.w3.org/2000/svg" xmlns:xlink="http://www.w3.org/1999/xlink" width="114.11px" height="114.11px" viewBox="0,0,256,256"><g fill="none" fill-rule="nonzero" stroke="none" stroke-width="none" stroke-linecap="none" stroke-linejoin="none" stroke-miterlimit="10" stroke-dasharray="" stroke-dashoffset="0" font-family="none" font-weight="none" font-size="none" text-anchor="none" style="mix-blend-mode: normal"><g transform="translate(-0.01122,-0.01122) scale(2.24345,2.24345)"><circle cx="57.06" cy="57.06" r="55.56" fill="#ffffff" stroke="#e94619" stroke-width="3" stroke-linecap="butt" stroke-linejoin="miter"></circle><path d="M28.65,75.82c4.70604,-7.67216 12.35472,-13.07658 21.1581,-14.94992c8.80338,-1.87334 17.98982,-0.0514 25.4119,5.03992c4.31212,3.01001 7.82942,7.02146 10.25,11.69" fill="none" stroke="#e94619" stroke-width="3" stroke-linecap="round" stroke-linejoin="round"></path><circle cx="37.69" cy="40.25" r="3.74" fill="#e94619" stroke="none" stroke-width="1" stroke-linecap="butt" stroke-linejoin="miter"></circle><circle cx="77.69" cy="40.25" r="3.74" fill="#e94619" stroke="none" stroke-width="1" stroke-linecap="butt" stroke-linejoin="miter"></circle><path d="M105.63,19.3l-7.15,-11.62l-7.15,11.62c-1.54728,2.97812 -1.09251,6.60266 1.14254,9.10622c2.23505,2.50356 5.78501,3.36486 8.91886,2.16392c3.13385,-1.20094 5.19906,-4.21408 5.1886,-7.57014c-0.01044,-1.29232 -0.33657,-2.5625 -0.95,-3.7z" fill="#ffffff" stroke="#e94619" stroke-width="3" stroke-linecap="round" stroke-linejoin="round"></path></g></g></svg>