<svg xmlns="http://www.w3.org/2000/svg" viewBox="0 0 83.71 105.42">
    <g>
        <g>
            <path d="M27,66.29a2.07,2.07,0,0,1-.63-4l27-8.67a2.07,2.07,0,1,1,1.27,3.93l-27,8.67A2,2,0,0,1,27,66.29Z"/>
            <path d="M30.34,76.78a2.06,2.06,0,0,1-.63-4l27-8.68A2.06,2.06,0,0,1,58,68L31,76.69A2.28,2.28,0,0,1,30.34,76.78Z"/>
            <path d="M83.3,77.91l-15.74-49a8.49,8.49,0,0,0-5.15-5.39l-3.9-1.46c2.47-3.85,3.76-8.15,2.75-12.74C59.58,1.72,55.17.24,52.7,0,46.56-.48,40.31,5.27,38,10.9a2.07,2.07,0,1,0,3.83,1.55c1.88-4.65,6.89-8.6,10.49-8.31,3,.25,4.28,3.45,4.87,6.09.88,4-.65,7.85-3.32,11.32a1.92,1.92,0,0,0-.42.52C46.56,30.63,33,36.73,32.83,36.81a2.07,2.07,0,1,0,1.67,3.78c.29-.13,2.19-1,4.83-2.43a5.7,5.7,0,1,1-3.12-4.56,2.07,2.07,0,0,0,1.84-3.7A9.84,9.84,0,1,0,43.1,36,56.76,56.76,0,0,0,55.93,25.53l5,1.87a4.44,4.44,0,0,1,2.66,2.79l15.74,49a4.43,4.43,0,0,1-2.86,5.56L25.64,101.07a4.41,4.41,0,0,1-5.56-2.85l-15.74-49a4.42,4.42,0,0,1,.54-3.82l19-28.22a4.4,4.4,0,0,1,5.19-1.68l20.37,7.76a2.07,2.07,0,0,0,1.47-3.86L30.53,11.66a8.52,8.52,0,0,0-10.08,3.23l-19,28.23a8.5,8.5,0,0,0-1,7.38l15.74,49A8.51,8.51,0,0,0,26.9,105L77.77,88.66A8.56,8.56,0,0,0,83.3,77.91Z"/>
        </g>
    </g>
</svg>