<?xml version="1.0" encoding="utf-8"?>
<!-- Generator: Adobe Illustrator 25.2.1, SVG Export Plug-In . SVG Version: 6.00 Build 0)  -->
<svg version="1.1" id="레이어_1" xmlns="http://www.w3.org/2000/svg" xmlns:xlink="http://www.w3.org/1999/xlink" x="0px"
	 y="0px" viewBox="0 0 331.3 336" style="enable-background:new 0 0 331.3 336;" xml:space="preserve">
<style type="text/css">
	.st0{fill:#595757;}
	.st1{fill:#2C6CFF;}
</style>
<g>
	<g>
		<path class="st0" d="M259.2,336H72c-39.6,0-72-32.4-72-72v-2.4l7.2-192C8.4,30,40.8,0,79.2,0H252c38.4,0,70.8,30,72,69.6l7.2,192
			c1.2,19.2-6,37.2-19.2,51.6c-13.2,14.4-31.2,22.8-50.4,22.8C261.6,336,260.4,336,259.2,336L259.2,336z M79.2,24
			c-26.4,0-46.8,20.4-48,45.6L24,264c0,26.4,21.6,48,48,48h189.6c13.2,0,25.2-6,33.6-15.6c8.4-9.6,13.2-21.6,13.2-34.8l-7.2-192
			C300,43.2,279.6,24,253.2,24H79.2z M79.2,24"/>
	</g>
	<path class="st1" d="M165.6,144c-46.8,0-84-37.2-84-84c0-7.2,4.8-12,12-12c7.2,0,12,4.8,12,12c0,33.6,26.4,60,60,60s60-26.4,60-60
		c0-7.2,4.8-12,12-12s12,4.8,12,12C249.6,106.8,212.4,144,165.6,144L165.6,144z M165.6,144"/>
</g>
</svg>
