<svg xmlns="http://www.w3.org/2000/svg" viewBox="0 0 478.27 324.39"><defs><style>.cls-1{font-size:45.25px;font-family:Dubai-Regular, Dubai;letter-spacing:-0.03em;}.cls-2{letter-spacing:-0.01em;}.cls-3{letter-spacing:-0.01em;}.cls-4{letter-spacing:-0.11em;}.cls-5{font-size:18.63px;font-family:Dubai-Light, Dubai;font-weight:300;letter-spacing:1em;}.cls-6{letter-spacing:0.96em;}.cls-7{letter-spacing:0.98em;}.cls-8{letter-spacing:1em;}.cls-9{letter-spacing:0.94em;}</style></defs><g id="레이어_2" data-name="레이어 2"><g id="레이어_1-2" data-name="레이어 1"><path d="M198.13,213.72l0,0L87.33,0h0A95.88,95.88,0,0,1,172.8,52.42l25.3,49.74h0A120.5,120.5,0,0,1,198.13,213.72Zm82-111.56,25.31-49.74A95.88,95.88,0,0,1,390.94,0h0L280.16,213.76,169.39,0h0a95.88,95.88,0,0,1,85.47,52.42Z"/><text class="cls-1" transform="translate(0 282.39)">W<tspan class="cls-2" x="40.14" y="0">ORLD INT</tspan><tspan class="cls-3" x="225.81" y="0">E</tspan><tspan class="cls-2" x="249.65" y="0">RN</tspan><tspan class="cls-4" x="306.08" y="0">A</tspan><tspan class="cls-2" x="329.71" y="0">TIONAL</tspan></text><text class="cls-5" transform="translate(32.51 315.24)">G<tspan class="cls-6" x="30.39" y="0">L</tspan><tspan x="57.73" y="0">O</tspan><tspan class="cls-7" x="89.24" y="0">B</tspan><tspan class="cls-8" x="118.68" y="0">AL </tspan><tspan class="cls-7" x="200.18" y="0">C</tspan><tspan x="229.12" y="0">OM</tspan><tspan class="cls-9" x="294.59" y="0">P</tspan><tspan class="cls-8" x="322.34" y="0">ANY</tspan></text></g></g></svg>