<svg version="1.1" xmlns="http://www.w3.org/2000/svg" xmlns:xlink="http://www.w3.org/1999/xlink" width="512" height="512" viewBox="0,0,256,256"><g fill="#e94619" fill-rule="nonzero" stroke="none" stroke-width="1" stroke-linecap="butt" stroke-linejoin="miter" stroke-miterlimit="10" stroke-dasharray="" stroke-dashoffset="0" font-family="none" font-weight="none" font-size="none" text-anchor="none" style="mix-blend-mode: normal"><g transform="translate(0,0.00213) scale(10.66667,10.66667)"><g><path d="M14.876,2.672c-0.58833,-1.03394 -1.68639,-1.67251 -2.876,-1.67251c-1.18961,0 -2.28767,0.63856 -2.876,1.67251l-8.71,15.518c-0.563,0.99126 -0.55193,2.20814 0.029,3.189c0.58947,1.01196 1.67591,1.63055 2.847,1.621h17.42c1.17109,0.00955 2.25753,-0.60904 2.847,-1.621c0.58093,-0.98086 0.592,-2.19774 0.029,-3.189zM21.831,20.372c-0.23437,0.39485 -0.66188,0.63434 -1.121,0.628h-17.42c-0.45974,0.00572 -0.88739,-0.235 -1.121,-0.631c-0.22155,-0.36826 -0.22576,-0.82774 -0.011,-1.2l8.71,-15.519c0.25061,-0.38094 0.67602,-0.61028 1.132,-0.61028c0.45598,0 0.88139,0.22935 1.132,0.61028l8.71,15.518c0.21515,0.37251 0.21094,0.8325 -0.011,1.201z"></path><path d="M12,7c-0.55228,0 -1,0.44772 -1,1v6c0,0.55228 0.44772,1 1,1c0.55228,0 1,-0.44772 1,-1v-6c0,-0.55228 -0.44772,-1 -1,-1z"></path><circle cx="12" cy="18" r="1"></circle></g></g></g></svg>