<svg 
 xmlns="http://www.w3.org/2000/svg"
 xmlns:xlink="http://www.w3.org/1999/xlink"
 width="944px" height="1027px">
<defs>
<linearGradient id="PSgrad_0" x1="55.919%" x2="0%" y1="0%" y2="82.904%">
  <stop offset="0%" stop-color="rgb(253,184,116)" stop-opacity="0.99608" />
  <stop offset="0%" stop-color="rgb(253,168,116)" stop-opacity="1" />
  <stop offset="55%" stop-color="rgb(243,119,70)" stop-opacity="1" />
  <stop offset="100%" stop-color="rgb(232,69,24)" stop-opacity="1" />
</linearGradient>
<linearGradient id="PSgrad_1" x1="55.919%" x2="0%" y1="0%" y2="82.904%">
  <stop offset="0%" stop-color="rgb(253,168,116)" stop-opacity="0.99608" />
  <stop offset="0%" stop-color="rgb(253,190,116)" stop-opacity="1" />
  <stop offset="52%" stop-color="rgb(243,130,70)" stop-opacity="1" />
  <stop offset="100%" stop-color="rgb(232,69,24)" stop-opacity="1" />
</linearGradient>

</defs>
<rect  x="678" y="41" width="944" height="1027" fill="white" />
<path fill-rule="evenodd"  fill="rgb(234, 79, 33)"
 d="M149.000,12.000 L758.994,12.000 L758.994,759.000 L149.000,759.000 L149.000,12.000 Z"/>
<path fill-rule="evenodd"  fill="rgb(255, 255, 255)"
 d="M679.977,8.845 C861.637,49.344 976.071,229.440 935.572,411.100 C895.072,592.761 714.977,707.194 533.317,666.695 C351.656,626.196 237.223,446.100 277.722,264.440 C318.221,82.779 498.317,-31.654 679.977,8.845 Z"/>
<path fill="url(#PSgrad_0)"
 d="M679.977,8.845 C861.637,49.344 976.071,229.440 935.572,411.100 C895.072,592.761 714.977,707.194 533.317,666.695 C351.656,626.196 237.223,446.100 277.722,264.440 C318.221,82.779 498.317,-31.654 679.977,8.845 Z"/>
<path fill-rule="evenodd"  fill="rgb(255, 255, 255)"
 d="M483.651,243.103 C697.385,290.753 832.023,502.646 784.373,716.380 C736.724,930.113 524.830,1064.751 311.097,1017.102 C97.363,969.452 -37.275,757.559 10.375,543.825 C58.024,330.091 269.918,195.453 483.651,243.103 Z"/>
<path fill="url(#PSgrad_1)"
 d="M483.651,243.103 C697.385,290.753 832.023,502.646 784.373,716.380 C736.724,930.113 524.830,1064.751 311.097,1017.102 C97.363,969.452 -37.275,757.559 10.375,543.825 C58.024,330.091 269.918,195.453 483.651,243.103 Z"/>
</svg>